<svg viewBox="0 0 1023 400" xmlns="http://www.w3.org/2000/svg"><g><g><g><g><g><line x1="40.84375" y1="374" x2="35.84375" y2="374" style="visibility: inherit;" fill="rgb(0, 0, 0)" stroke="rgb(204, 204, 204)" stroke-width="1px"></line><line x1="40.84375" y1="347.2857142857143" x2="35.84375" y2="347.2857142857143" style="visibility: inherit;" fill="rgb(0, 0, 0)" stroke="rgb(204, 204, 204)" stroke-width="1px"></line><line x1="40.84375" y1="320.5714285714286" x2="35.84375" y2="320.5714285714286" style="visibility: inherit;" fill="rgb(0, 0, 0)" stroke="rgb(204, 204, 204)" stroke-width="1px"></line><line x1="40.84375" y1="293.85714285714283" x2="35.84375" y2="293.85714285714283" style="visibility: inherit;" fill="rgb(0, 0, 0)" stroke="rgb(204, 204, 204)" stroke-width="1px"></line><line x1="40.84375" y1="267.14285714285717" x2="35.84375" y2="267.14285714285717" style="visibility: inherit;" fill="rgb(0, 0, 0)" stroke="rgb(204, 204, 204)" stroke-width="1px"></line><line x1="40.84375" y1="240.42857142857142" x2="35.84375" y2="240.42857142857142" style="visibility: inherit;" fill="rgb(0, 0, 0)" stroke="rgb(204, 204, 204)" stroke-width="1px"></line><line x1="40.84375" y1="213.7142857142857" x2="35.84375" y2="213.7142857142857" style="visibility: inherit;" fill="rgb(0, 0, 0)" stroke="rgb(204, 204, 204)" stroke-width="1px"></line><line x1="40.84375" y1="187" x2="35.84375" y2="187" style="visibility: inherit;" fill="rgb(0, 0, 0)" stroke="rgb(204, 204, 204)" stroke-width="1px"></line><line x1="40.84375" y1="160.28571428571425" x2="35.84375" y2="160.28571428571425" style="visibility: inherit;" fill="rgb(0, 0, 0)" stroke="rgb(204, 204, 204)" stroke-width="1px"></line><line x1="40.84375" y1="133.57142857142858" x2="35.84375" y2="133.57142857142858" style="visibility: inherit;" fill="rgb(0, 0, 0)" stroke="rgb(204, 204, 204)" stroke-width="1px"></line><line x1="40.84375" y1="106.85714285714285" x2="35.84375" y2="106.85714285714285" style="visibility: inherit;" fill="rgb(0, 0, 0)" stroke="rgb(204, 204, 204)" stroke-width="1px"></line><line x1="40.84375" y1="80.14285714285711" x2="35.84375" y2="80.14285714285711" style="visibility: inherit;" fill="rgb(0, 0, 0)" stroke="rgb(204, 204, 204)" stroke-width="1px"></line><line x1="40.84375" y1="53.42857142857137" x2="35.84375" y2="53.42857142857137" style="visibility: inherit;" fill="rgb(0, 0, 0)" stroke="rgb(204, 204, 204)" stroke-width="1px"></line><line x1="40.84375" y1="26.714285714285744" x2="35.84375" y2="26.714285714285744" style="visibility: inherit;" fill="rgb(0, 0, 0)" stroke="rgb(204, 204, 204)" stroke-width="1px"></line><line x1="40.84375" y1="0" x2="35.84375" y2="0" style="visibility: inherit;" fill="rgb(0, 0, 0)" stroke="rgb(204, 204, 204)" stroke-width="1px"></line></g><g transform="translate(30.84375, 0)"><text x="0" y="374" dx="0em" dy="0.3em" style="text-anchor: end; visibility: hidden; font-family: Roboto, sans-serif; font-size: 12px; font-weight: 200;" fill="rgb(33, 33, 33)" stroke="none" stroke-width="1px">2</text><text x="0" y="347.2857142857143" dx="0em" dy="0.3em" style="text-anchor: end; visibility: inherit; font-family: Roboto, sans-serif; font-size: 12px; font-weight: 200;" fill="rgb(33, 33, 33)" stroke="none" stroke-width="1px">2.2</text><text x="0" y="320.5714285714286" dx="0em" dy="0.3em" style="text-anchor: end; visibility: inherit; font-family: Roboto, sans-serif; font-size: 12px; font-weight: 200;" fill="rgb(33, 33, 33)" stroke="none" stroke-width="1px">2.4</text><text x="0" y="293.85714285714283" dx="0em" dy="0.3em" style="text-anchor: end; visibility: inherit; font-family: Roboto, sans-serif; font-size: 12px; font-weight: 200;" fill="rgb(33, 33, 33)" stroke="none" stroke-width="1px">2.6</text><text x="0" y="267.14285714285717" dx="0em" dy="0.3em" style="text-anchor: end; visibility: inherit; font-family: Roboto, sans-serif; font-size: 12px; font-weight: 200;" fill="rgb(33, 33, 33)" stroke="none" stroke-width="1px">2.8</text><text x="0" y="240.42857142857142" dx="0em" dy="0.3em" style="text-anchor: end; visibility: inherit; font-family: Roboto, sans-serif; font-size: 12px; font-weight: 200;" fill="rgb(33, 33, 33)" stroke="none" stroke-width="1px">3</text><text x="0" y="213.7142857142857" dx="0em" dy="0.3em" style="text-anchor: end; visibility: inherit; font-family: Roboto, sans-serif; font-size: 12px; font-weight: 200;" fill="rgb(33, 33, 33)" stroke="none" stroke-width="1px">3.2</text><text x="0" y="187" dx="0em" dy="0.3em" style="text-anchor: end; visibility: inherit; font-family: Roboto, sans-serif; font-size: 12px; font-weight: 200;" fill="rgb(33, 33, 33)" stroke="none" stroke-width="1px">3.4</text><text x="0" y="160.28571428571425" dx="0em" dy="0.3em" style="text-anchor: end; visibility: inherit; font-family: Roboto, sans-serif; font-size: 12px; font-weight: 200;" fill="rgb(33, 33, 33)" stroke="none" stroke-width="1px">3.6</text><text x="0" y="133.57142857142858" dx="0em" dy="0.3em" style="text-anchor: end; visibility: inherit; font-family: Roboto, sans-serif; font-size: 12px; font-weight: 200;" fill="rgb(33, 33, 33)" stroke="none" stroke-width="1px">3.8</text><text x="0" y="106.85714285714285" dx="0em" dy="0.3em" style="text-anchor: end; visibility: inherit; font-family: Roboto, sans-serif; font-size: 12px; font-weight: 200;" fill="rgb(33, 33, 33)" stroke="none" stroke-width="1px">4</text><text x="0" y="80.14285714285711" dx="0em" dy="0.3em" style="text-anchor: end; visibility: inherit; font-family: Roboto, sans-serif; font-size: 12px; font-weight: 200;" fill="rgb(33, 33, 33)" stroke="none" stroke-width="1px">4.2</text><text x="0" y="53.42857142857137" dx="0em" dy="0.3em" style="text-anchor: end; visibility: inherit; font-family: Roboto, sans-serif; font-size: 12px; font-weight: 200;" fill="rgb(33, 33, 33)" stroke="none" stroke-width="1px">4.4</text><text x="0" y="26.714285714285744" dx="0em" dy="0.3em" style="text-anchor: end; visibility: inherit; font-family: Roboto, sans-serif; font-size: 12px; font-weight: 200;" fill="rgb(33, 33, 33)" stroke="none" stroke-width="1px">4.6</text><text x="0" y="0" dx="0em" dy="0.3em" style="text-anchor: end; visibility: hidden; font-family: Roboto, sans-serif; font-size: 12px; font-weight: 200;" fill="rgb(33, 33, 33)" stroke="none" stroke-width="1px">4.8</text></g><line x1="40.84375" y1="0" x2="40.84375" y2="374" fill="rgb(0, 0, 0)" stroke="rgb(204, 204, 204)" stroke-width="1px"></line></g></g><g transform="translate(40, 0)" clip-path="url(#clip_0)"><clipPath id="clip_0"><rect width="982" height="374"></rect></clipPath><g><g><g><line x1="0" y1="0" x2="0" y2="374" fill="rgb(0, 0, 0)" stroke="rgb(66, 66, 66)" stroke-width="1px" opacity="0.25"></line><line x1="81.84635416666666" y1="0" x2="81.84635416666666" y2="374" fill="rgb(0, 0, 0)" stroke="rgb(66, 66, 66)" stroke-width="1px" opacity="0.25"></line><line x1="163.69270833333331" y1="0" x2="163.69270833333331" y2="374" fill="rgb(0, 0, 0)" stroke="rgb(66, 66, 66)" stroke-width="1px" opacity="0.25"></line><line x1="245.5390625" y1="0" x2="245.5390625" y2="374" fill="rgb(0, 0, 0)" stroke="rgb(66, 66, 66)" stroke-width="1px" opacity="0.25"></line><line x1="327.38541666666663" y1="0" x2="327.38541666666663" y2="374" fill="rgb(0, 0, 0)" stroke="rgb(66, 66, 66)" stroke-width="1px" opacity="0.25"></line><line x1="409.23177083333337" y1="0" x2="409.23177083333337" y2="374" fill="rgb(0, 0, 0)" stroke="rgb(66, 66, 66)" stroke-width="1px" opacity="0.25"></line><line x1="491.078125" y1="0" x2="491.078125" y2="374" fill="rgb(0, 0, 0)" stroke="rgb(66, 66, 66)" stroke-width="1px" opacity="0.25"></line><line x1="572.9244791666667" y1="0" x2="572.9244791666667" y2="374" fill="rgb(0, 0, 0)" stroke="rgb(66, 66, 66)" stroke-width="1px" opacity="0.25"></line><line x1="654.7708333333333" y1="0" x2="654.7708333333333" y2="374" fill="rgb(0, 0, 0)" stroke="rgb(66, 66, 66)" stroke-width="1px" opacity="0.25"></line><line x1="736.6171875" y1="0" x2="736.6171875" y2="374" fill="rgb(0, 0, 0)" stroke="rgb(66, 66, 66)" stroke-width="1px" opacity="0.25"></line><line x1="818.4635416666667" y1="0" x2="818.4635416666667" y2="374" fill="rgb(0, 0, 0)" stroke="rgb(66, 66, 66)" stroke-width="1px" opacity="0.25"></line><line x1="900.3098958333333" y1="0" x2="900.3098958333333" y2="374" fill="rgb(0, 0, 0)" stroke="rgb(66, 66, 66)" stroke-width="1px" opacity="0.25"></line><line x1="982.15625" y1="0" x2="982.15625" y2="374" fill="rgb(0, 0, 0)" stroke="rgb(66, 66, 66)" stroke-width="1px" opacity="0.25"></line></g><g><line x1="0" y1="374" x2="982.15625" y2="374" fill="rgb(0, 0, 0)" stroke="rgb(66, 66, 66)" stroke-width="1px" opacity="0.25"></line><line x1="0" y1="347.2857142857143" x2="982.15625" y2="347.2857142857143" fill="rgb(0, 0, 0)" stroke="rgb(66, 66, 66)" stroke-width="1px" opacity="0.25"></line><line x1="0" y1="320.5714285714286" x2="982.15625" y2="320.5714285714286" fill="rgb(0, 0, 0)" stroke="rgb(66, 66, 66)" stroke-width="1px" opacity="0.25"></line><line x1="0" y1="293.85714285714283" x2="982.15625" y2="293.85714285714283" fill="rgb(0, 0, 0)" stroke="rgb(66, 66, 66)" stroke-width="1px" opacity="0.25"></line><line x1="0" y1="267.14285714285717" x2="982.15625" y2="267.14285714285717" fill="rgb(0, 0, 0)" stroke="rgb(66, 66, 66)" stroke-width="1px" opacity="0.25"></line><line x1="0" y1="240.42857142857142" x2="982.15625" y2="240.42857142857142" fill="rgb(0, 0, 0)" stroke="rgb(66, 66, 66)" stroke-width="1px" opacity="0.25"></line><line x1="0" y1="213.7142857142857" x2="982.15625" y2="213.7142857142857" fill="rgb(0, 0, 0)" stroke="rgb(66, 66, 66)" stroke-width="1px" opacity="0.25"></line><line x1="0" y1="187" x2="982.15625" y2="187" fill="rgb(0, 0, 0)" stroke="rgb(66, 66, 66)" stroke-width="1px" opacity="0.25"></line><line x1="0" y1="160.28571428571425" x2="982.15625" y2="160.28571428571425" fill="rgb(0, 0, 0)" stroke="rgb(66, 66, 66)" stroke-width="1px" opacity="0.25"></line><line x1="0" y1="133.57142857142858" x2="982.15625" y2="133.57142857142858" fill="rgb(0, 0, 0)" stroke="rgb(66, 66, 66)" stroke-width="1px" opacity="0.25"></line><line x1="0" y1="106.85714285714285" x2="982.15625" y2="106.85714285714285" fill="rgb(0, 0, 0)" stroke="rgb(66, 66, 66)" stroke-width="1px" opacity="0.25"></line><line x1="0" y1="80.14285714285711" x2="982.15625" y2="80.14285714285711" fill="rgb(0, 0, 0)" stroke="rgb(66, 66, 66)" stroke-width="1px" opacity="0.25"></line><line x1="0" y1="53.42857142857137" x2="982.15625" y2="53.42857142857137" fill="rgb(0, 0, 0)" stroke="rgb(66, 66, 66)" stroke-width="1px" opacity="0.25"></line><line x1="0" y1="26.714285714285744" x2="982.15625" y2="26.714285714285744" fill="rgb(0, 0, 0)" stroke="rgb(66, 66, 66)" stroke-width="1px" opacity="0.25"></line><line x1="0" y1="0" x2="982.15625" y2="0" fill="rgb(0, 0, 0)" stroke="rgb(66, 66, 66)" stroke-width="1px" opacity="0.25"></line></g></g></g><g><g><line x1="0" y1="641.1428571428572" x2="982.15625" y2="641.1428571428572" fill="rgb(0, 0, 0)" stroke="rgb(153, 153, 153)" stroke-width="1.5px"></line></g></g><g><g><line x1="81.84635416666666" y1="0" x2="81.84635416666666" y2="374" fill="rgb(0, 0, 0)" stroke="rgb(153, 153, 153)" stroke-width="1.5px"></line></g></g><g><g><g><g><g><path stroke="rgb(187, 187, 187)" stroke-width="2px" d="M122.72860807291667,-12.51999030794415L123.38337890624999,40.58109051840643L123.83353385416666,-8.953375748225657L124.28368880208333,19.474576609475243L125.06122916666666,33.56269775118145L125.67507682291668,25.583641256604853L125.92061588541668,31.384246417454275L127.23015755208333,15.798412118639247L127.31200390624998,35.568671635219026L127.88492838541667,41.27157354354854L128.17139062500002,35.83776957648138L128.94893098958335,71.3425201007298L128.98985416666667,36.77633224214825L129.48093229166668,32.15778357642034L129.89016406250002,54.18840210778372L129.97201041666668,59.67876441138128L130.29939583333334,55.981072085244286L131.69078385416665,68.108122076307L133.082171875,90.19377034051077L133.16401822916666,97.99347066879272L133.28678776041664,70.58203976494924L133.45048046875,62.18134341921124L133.69601953125,68.74675995962957L133.85971223958333,79.7935329845973L136.06956380208334,89.17005171094618L136.88802734375,101.37321342740736L138.11572265625,110.79896593093872L138.15664583333333,111.9733157157898L139.83449609375,108.23046588897705L141.47142317708335,107.74156747545514L141.51234635416668,123.87677557127813L142.98558072916668,113.09040655408583L143.31296614583334,116.79491390500746L143.6403515625,123.41443664687017L143.76312109375002,122.40027179036818L145.1954322916667,143.50812322752816L145.31820182291668,122.0366233416966L145.89112630208334,128.673661334174L146.01389583333332,145.28668546676636L146.70958984375,123.79782955987112L147.15974479166667,120.29162669181824L148.42836328125,147.85837009974887L148.75574869791666,134.54416826793124L150.18805989583333,149.4857916491372L150.80190755208332,135.98217034339905L151.4976015625,140.8149146011897L151.57944791666665,159.93070881707328L151.86591015625,137.01751273018974L154.56683984375,152.7496789864131L157.43146223958334,151.96888095991952L157.96346354166667,168.7249250752585L158.24992578125,155.2482454095568L159.5594674479167,158.00527323995314L159.68223697916667,160.47556049483163L159.96869921875,148.59292786461967L161.23731770833334,182.86040108544486L162.05578125,178.3702232837677L162.09670442708332,164.48789041382926L162.83332161458333,167.0526326383863L166.55733072916667,154.8345033441271L166.92563932291665,166.30622819491794L167.33487109375,177.2184840951647L167.78502604166667,166.94416546821594L172.24565234375,191.0479527541569L173.47334765625,179.8075247492109L176.74720182291665,199.58571389743258L178.38412890625,223.98547707285198L179.81644010416665,197.81533605711797L181.53521354166665,203.87440262522014L181.73982942708332,201.40449752126423L182.27183072916665,217.02399294716972L182.59921614583334,214.80197640827723L182.72198567708332,226.38958852631706L183.54044921875,203.46031025477816L184.27706640625,182.7255336557116L184.84999088541667,223.22448720250813L185.3819921875,225.28287945474895L187.30538151041668,210.822384084974L187.3463046875,212.29350590705872L188.20569140625,220.52306233133586L189.35154036458334,226.7328874383654L189.67892578125,210.1635558945792L190.0063111979167,204.03388694354464L191.68416145833334,223.84175648008076L192.05247005208332,223.20929670333862L192.6663177083333,224.52443725722173L193.03462630208332,222.72479302542547L193.7303203125,217.53664840970723L193.975859375,215.18202550070623L194.50786067708333,230.2154287951333L194.54878385416666,218.1087920325143L194.58970703125,239.45268535614014L194.99893880208333,221.17163613864352L195.12170833333332,209.79525794301716L195.81740234375,213.87385920115878L196.922328125,228.7201040812901L197.82263802083332,210.71917148998804L198.23186979166667,243.67618550573079L198.92756380208334,226.3203236716134L201.38295442708335,226.7140346595219L202.65157291666668,217.58279313359944L202.77434244791667,228.0233792577471L203.0608046875,219.96486721720012L203.51095963541667,221.7280160358974L206.0072734375,235.77591579301017L208.0125091145833,229.48816374370028L208.05343229166667,234.0064296381814L208.83097265625,239.13721976961406L208.87189583333333,231.82422048704962L208.91281901041665,239.36979045186726L209.52666666666667,244.4456463881901L210.54974609375,249.3452352115086L211.69559505208332,239.91400521142143L212.47313541666665,238.84060696193148L212.75959765625,250.39573625155856L213.49621484375,272.09133580752786L213.618984375,249.01343267304557L214.47837109375,235.99925116130282L215.46052734375,246.65317303793768L215.583296875,246.04669952392578L217.13837760416666,242.59396593911308L218.529765625,245.90090894699097L219.18453645833335,247.9496837343488L221.14884895833333,244.31819905553547L223.48147005208332,251.15338230133057L224.38177994791667,255.0680408137185L224.422703125,261.33248165675576L224.70916536458333,239.42271835463384L225.07747395833331,235.00276078496663L226.1414765625,237.87013469423565L227.77840364583332,225.77381600652424L227.90117317708334,249.2820210797446L229.16979166666667,267.3670905658177L229.8245625,258.1410756111145L231.37964322916667,268.77334226880754L231.50241276041666,246.2823592594692L231.58425911458335,242.5833294051034L231.66610546875,255.6516808101109L231.788875,263.448960849217L231.95256770833333,254.4055503436497L232.07533723958335,274.23794123104636L232.85287760416668,248.04885189873832L233.7531875,252.54982546397616L235.75842317708333,267.1422902856554L236.61780989583335,257.30849613462175L239.31873958333333,249.56388923100062L239.40058593749998,256.4228932176317L240.1781263020833,257.26244694846014L241.52859114583333,248.88337397575378L241.89689973958332,261.0097870486123L242.06059244791666,252.9414983136313L242.30613151041666,259.5235702650887L242.79720963541666,246.1460587637765L242.91997916666665,256.60209015437533L244.51598307291667,260.254688671657L246.030140625,263.2943808010646L246.11198697916666,265.62989616394043L246.48029557291667,260.6888758114406L246.93045052083335,257.09802651405334L247.17598958333332,259.80012014934L247.46245182291668,267.92977595329285L248.976609375,242.26499768665857L249.99968880208334,273.06040685517445L250.24522786458337,249.46105878693717L250.49076692708334,274.6093919277191L250.61353645833333,270.50152427809576L251.51384635416667,263.61296728679116L252.94615755208335,258.43727442196433L253.3963125,266.08159855433877L254.82862369791667,265.55798809868946L256.05631901041664,263.6058019569942L258.5526328125,270.0898203509194L258.96186458333335,268.50494493756975L261.7037174479167,268.6907339777265L263.6680299479167,274.1603645937783L264.11818489583334,270.4132155690874L267.02373046875,265.3372322491237L267.43296223958333,277.35285340036666L267.5966549479167,271.87729944501604L268.619734375,259.0777275221688L270.46127734375,280.3481523309435L270.584046875,285.3932769639151L272.0982044270834,259.1978184495653L273.6123619791667,275.4432452406202L273.7760546875,269.33121892384116L273.85790104166665,251.28576575006755L274.1034401041667,266.95280711991444L274.47174869791667,264.27020318167547L275.4129817708333,275.4820335592542L275.6994440104167,277.5871119158608L277.29544791666666,280.30939585821966L277.33637109374996,281.6241224152701L278.56406640625,274.63662018094743L279.5052994791667,289.5533719062805L279.58714583333335,293.7848653793335L279.7099153645833,277.8936606475285L279.75083854166667,273.2398585591997L280.07822395833335,281.1007985728127L281.6333046875,271.52244046756203L282.77915364583333,285.6878834792546L283.55669401041666,276.73845025471275L284.00684895833336,271.81803420611794L284.3751575520833,279.55821452822005L285.6437760416667,275.5470310619899L286.0939309895833,286.399639572416L288.38562890625,275.1690519537244L289.16316927083335,280.0946588856834L289.69517057291665,269.3740198271615L290.0634791666667,277.129677261625L290.14532552083335,285.08863898685996L291.86409895833333,277.0148090635027L292.02779166666664,286.63660499027793L292.19148437499996,271.895610843386L292.64163932291666,281.17748352459495L292.7644088541666,274.26313134602134L292.80533203125,269.8058822154999L294.11487369791666,281.97551018851146L294.64687499999997,274.86094277245655L295.3834921875,284.04629049982344L295.6699544270833,287.5119535241808L296.2019557291666,287.7945222854614L296.8158033854167,281.0534118584224L297.18411197916663,282.57599667140414L297.3068815104167,275.3193646499089L298.5345768229167,283.8356298037938L299.5167330729167,285.5337174279349L299.63950260416664,285.3577687740326L299.7213489583333,285.8353937353407L299.88504166666667,281.5807801314763L301.2764296875,290.7366703919002L301.60381510416664,280.21949485370095L302.9542799479167,282.64229985645835L304.67305338541667,296.3078257696969L305.04136197916665,287.5055843421391L305.2459778645834,290.5588746752058L307.0875208333333,286.42760028157915L307.29213671875,291.5406522410256L307.78321484375,290.866124016898L309.66568098958334,275.09274915286477L313.75799869791666,282.5912190164839L316.3361588541667,280.80259346961975L317.4820078125,297.00948670932223L318.42324088541665,283.20778768403187L320.51032291666667,291.1513678346361L321.9017109375,281.0885378973824L322.4337122395833,288.38239778791154L325.2574114583333,283.85053368977134L325.584796875,288.55821905817305L325.9121822916666,277.1393265724182L326.60787630208335,273.3584845747266L327.26264713541667,280.22908047267373L327.7537252604167,279.48372694424216L329.2269596354167,299.17026356288363L329.55434505208336,300.2308279105595L330.57742447916667,277.6277154513768L331.9278893229167,286.24661997386386L332.00973567708337,284.32258561679294L332.82819921875,295.77042603492737L333.0328151041667,278.6169131142753L333.11466145833333,287.85385121618L333.1965078125,285.83176330157687L336.5931315104167,296.5330718926021L337.32974869791667,299.11007479258944L338.8029830729166,281.0437625476292L338.88482942708333,295.2698401723589L339.66236979166666,289.2997192314693L340.97191145833335,300.8902611732483L341.0537578125,297.8447730881827L342.0359140625,292.61911399023876L342.0768372395833,293.3093422480992L342.281453125,289.13746431895663L342.48606901041666,300.98360153606956L346.7420794270833,297.6780915941511L347.4786966145833,291.2199320793152L348.9928541666667,304.5147079059056L349.11562369791665,300.84258784566606L349.72947135416666,297.37310331208363L349.93408723958333,303.2754243101393L350.4660885416667,290.8079096930367L350.6707044270833,299.08399299212863L351.3254752604167,296.73382851055686L351.53009114583335,300.92099247659957L351.89839973958334,281.82914638519287L352.55317057291666,286.9783752986363L353.94455859375,290.91239612443104L354.92671484375,297.54682275227134L356.85010416666665,295.58193009240284L357.2593359375,298.2432609626225L357.4230286458333,281.612498658044L358.07779947916663,300.5695091656276L358.52795442708333,292.4190261363983L360.2058046875,292.45711384500777L361.8427317708333,301.4090310505458L362.1701171875,296.2234659535544L362.53842578125,288.36042410986767L363.19319661458337,296.52991914749146L364.871046875,292.9364903313773L364.99381640625,300.52759994779314L365.44397135416665,311.6134479045868L367.2855143229167,309.8719861507416L367.94028515625,305.36244603565757L368.1449010416667,303.232941865921L368.22674739583334,299.8163852351052L369.0452109375,298.952278307506L369.4953658854166,281.6966673987252L370.5184453125,313.79355522564475L373.09660546875,293.1432021345411L373.219375,312.37762236595154L373.4649140625,291.2003468445369L375.0199947916667,318.83441250664845L375.59291927083336,303.5159246240343L375.674765625,303.46220057351246L376.77969140625,297.38354877063205L377.51630859375,307.54618379047935L378.66215755208333,299.7282357556479L379.5215442708334,307.44348073005676L380.91293229166666,300.5106897694724L381.9769348958334,300.88561167035783L382.1406276041667,295.4769978182656L382.75447526041665,289.91905849320545L383.3273997395833,302.88327377183094L385.6600208333333,277.87098635946L386.11017578125,300.26413873263766L386.1510989583333,305.56686493328635L387.2969479166666,291.5483271053859L387.460640625,293.1700482368469L387.54248697916665,306.4066415854863L388.03356510416666,302.52892432894026L389.01572135416666,295.2622926916395L389.50679947916666,287.04830891745434L389.8341848958333,291.2256643431527L390.0797239583333,307.25367910521373L390.52987890625,299.99465864045277L390.8572643229167,298.22762462071006L390.93911067708336,308.43678651537215L392.5760377604167,301.13942357472007L392.94434635416667,309.71240629468645L393.0261927083333,296.22018582480297L393.14896223958334,302.3262569563729L394.4175807291667,293.90110295159474L394.66311979166665,295.08478358813693L395.317890625,301.3256584576198L398.05974348958335,298.63458350726535L398.1825130208333,301.36298186438427L399.246515625,305.8527138233185L400.8015963541667,307.87438774108887L400.84251953125,299.80377425466264L401.90652213541665,311.5404252324785L402.6022161458333,306.8399051938738L402.7659088541667,302.20517880576L403.0932942708333,314.00676359449113L403.29791015625,303.8087796143123L403.33883333333335,306.27763380323137L403.5843723958333,302.5984439509255L404.9348372395833,305.3621275765555L405.1803763020833,307.48981652941023L406.2034557291667,305.559317452567L406.32622526041666,294.4469736984798L408.6588463541667,303.601080587932L411.11423697916666,300.1786643096379L411.44162239583335,292.5611862795693L412.42377864583335,304.32621196338107L413.1603958333334,305.14796383040294L414.2243984375,311.4637084347861L415.12470833333333,313.09288150923595L415.90224869791666,305.1406392710549L415.94317187499996,314.09204694202964L417.08902083333334,308.0347000530788L418.07117708333334,300.9914993218013L418.6031783854167,313.8974365847451L419.66718098958336,305.34251049586703L420.5674908854167,306.74073702948436L420.8130299479167,314.98602533340454L421.14041536458336,314.7420219693865L421.34503125,296.6052665710449L423.63672916666667,310.49622968264987L424.08688411458337,315.4707200867789L424.65980859375003,305.59017613955905L425.47827213541666,310.7358383110591L426.0511966145834,312.3038990838187L426.2558125,308.2516662393297L429.32505078125,306.4984851905278L430.55274609375,313.8566738196782L430.9210546875,306.1683067934853L431.657671875,307.9115837642125L431.9032109375,301.8941398007529L432.27151953124996,316.2529193333217L434.52229427083336,314.1833491665976L434.8906028645833,311.9201558658055L436.20014453125,303.29902212960377L436.3638372395833,307.7936265127999L437.6324557291667,310.8800047465733L437.8779947916667,313.9284863471985L438.6146119791667,294.21828821727206L438.8601510416667,305.62730847086226L440.00600000000003,313.45439628192355L440.0878463541667,310.20133655411854L440.98815625000003,310.91898414066856L441.0700026041667,312.65694284439087L442.9115455729167,313.73266584532604L443.32077734375,313.2827786718096L444.63031901041666,314.34471239362443L444.8349348958333,311.96837057386125L445.12139713541666,309.99758642060414L445.5715520833333,313.3637946673802L446.75832421875,306.8249376160758L446.92201692708335,318.1467956134251L449.54110026041667,302.1438754286085L449.74571614583334,311.84321614674155L450.40048697916666,313.16221005576L451.5054127604167,308.27096486091614L452.16018359375,320.5789633137839L452.5284921875,310.2848365306854L453.0195703125,318.32990959712436L454.9429596354167,310.81981597627913L455.10665234375,305.7272409370967L456.37527083333333,310.2416216305324L457.9303515625,310.72733545303345L458.46235286458335,302.0823809759957L458.83066145833334,322.4992398534502L459.2398932291667,318.71062745366777L459.4035859375,317.8654369967324L460.46758854166666,301.9299027579171L462.0635924479166,300.5433955192566L462.5546705729166,314.31617845807756L462.63651692708333,300.6290291718074L462.92297916666666,320.98659096445357L463.5368268229166,316.55332180431907L464.27344401041665,314.80730608531405L464.8463684895833,299.7251148564475L465.09190755208334,318.1442479406084L465.37836979166667,309.45658809798107L465.5829856770833,316.65408226421897L465.99221744791663,299.4638510090964L468.2839153645833,306.850318806512L468.8159166666667,314.53438663482666L470.12545833333337,313.8564508983067L470.2073046875,322.78789118358065L472.17161718750003,310.36668051992143L472.53992578125,307.06002412523543L472.908234375,320.9730882985251L473.31746614583335,322.84518197604586L474.4223919270833,306.39014540399825L474.99531640625,313.3426489830017L477.61439973958335,320.8037954398564L477.65532291666665,324.31318289893017L478.47378645833334,309.8817946910858L478.96486458333334,308.1894711766924L479.29224999999997,312.5737613269261L480.27440624999997,328.13886393819536L480.9701002604167,302.8138815334865L481.0110234375,302.7504126344408L481.747640625,307.71754663331166L483.4254908854167,315.3862647329058L483.8756458333333,315.1932466711317L484.4076471354167,310.0811500889914L484.9396484375,314.8548838751656L485.6353424479167,313.4302252360753L486.74026822916665,304.702885389328L487.1495,322.1912580558232L487.640578125,325.4111024992806L487.68150130208335,321.16164793287004L488.9501197916667,316.47020397867476L488.99104296875004,320.3813594409398L489.03196614583334,318.17778168405806L489.4411979166667,319.9897184371948L489.97319921875004,312.1890627316066L490.21873828125,311.14776515960693L490.5461236979167,307.7280239377703L490.79166276041667,323.01004825319563L493.65628515624996,304.50903933388844L494.76121093750004,313.5292660168239L496.02982942708337,306.40903002875194L496.2344453125,308.2517299311501L496.72552343750004,314.3471008368901L498.8944518229166,311.1024484293801L499.5901458333334,316.3759400844574L499.8766080729166,316.31266226087297L502.0864596354167,322.3728115899222L502.5366145833334,314.40426424571444L505.0738515625,322.731906073434L505.19662109375,313.49222922325134L505.2375442708333,309.7300170830318L507.2427799479167,320.0034758704049L509.28893880208335,320.5350159576961L509.5344778645833,318.5337234224592L509.5754010416667,312.46768260002136L509.82094010416665,322.7782100268773L511.58063671875,317.07228275707786L512.2763307291666,316.7334104265486L513.6267955729166,309.14774646077836L514.03602734375,314.56855729648044L514.5271054687499,318.38165920121327L515.4683385416668,314.6276314599173L516.2049557291666,328.54028163637435L516.98249609375,320.4909412179674L517.3917278645833,314.6244150229863L517.47357421875,305.76609294755116L520.0108111979167,315.2902811595372L520.42004296875,330.22706396239147L520.7065052083334,311.95349853379383L520.91112109375,318.57407219069347L521.5658919270833,325.85678601264954L521.8523541666667,315.84745720454623L522.62989453125,325.86060752187456L525.5354401041667,321.7514341899327L527.78621484375,311.8161152771541L531.0191458333333,317.9690317426409L532.9016119791667,317.42118654932295L532.9425351562501,328.0136776651655L533.1471510416666,310.44849266324724L533.4745364583333,322.59847170966015L534.2111536458334,309.88259083884105L535.8480807291667,310.4791284288679L536.8302369791667,318.55114313534324L537.0757760416666,321.12489775248935L537.11669921875,318.5940395763942L538.5080872395832,309.8673366478511L538.9582421875,333.53432542937145L540.5133229166667,321.63264894485474L540.677015625,314.2245896203177L540.9225546875,316.236932686397L541.2090169270833,317.599077803748L541.2499401041667,317.1554005827223L542.4776354166667,320.91165753773276L545.5059505208334,326.2254024233137L545.5468736979167,324.69552489689414L546.8973385416666,322.0533652646201L548.1250338541668,324.61247076307023L548.534265625,312.37768605777194L548.7388815104167,320.2168753147125L550.13026953125,317.8656280721937L550.3348854166667,316.7807334491185L550.4167317708334,318.87498419625416L550.86688671875,315.3639725957598L550.9487330729166,325.6461571625301L553.5268932291666,313.3294329302651L555.3275130208333,320.5250481878008L555.6548984374999,310.9677402291979L557.00536328125,320.7104232311249L560.4838333333333,316.59669593402316L562.1207604166667,329.4833345753806L562.9392239583334,317.0901483127049L563.3075325520833,309.99653550556724L564.1669192708333,323.0230413845607L565.4355377604168,313.53964778355186L565.5173841145834,311.294351884297L565.6810768229167,322.9958768231528L566.5404635416667,317.30998063087463L566.6632330729167,320.2784016132355L566.82692578125,323.99994652611866L567.4816966145834,321.1284963403429L567.8500052083334,325.1918752534049L568.0955442708333,316.068053824561L569.6097018229167,324.32897847039357L570.51001171875,323.2396572657994L571.0829361979166,321.92868852615356L571.6967838541666,331.51946653638566L571.7786302083334,313.68709434781755L571.9832460937499,321.63599276542664L573.4155572916667,327.8851157256535L574.0294049479166,329.2733107975551L575.2571002604167,315.75634605543956L575.5026393229167,312.1871838229043L575.7072552083333,312.8414898940495L576.0346406250001,324.47078830855236L578.4491080729167,318.40933329718456L580.08603515625,314.3115608010973L580.2497278645834,323.08889872687206L581.5183463541666,328.83109848839894L582.54142578125,324.63673734664917L582.9915807291667,320.904205594744L583.6463515625,319.92959335872104L584.01466015625,321.81334263937816L585.2832786458333,323.6602780478341L585.3651249999999,327.2117976461138L585.5288177083332,318.851290839059L585.856203125,315.62007740565707L587.0429752604166,312.44602738107955L587.4112838541666,322.38621871812L587.9023619791667,336.50612207821433L588.0660546875,317.79034434046065L589.0482109375,325.04891896247864L589.2119036458333,323.1548834528242L589.2937499999999,325.90729362624035L590.15313671875,326.382561990193L590.1940598958333,318.56553748675753L590.8079075520833,322.25001376015797L591.0534466145833,320.01038643292014L591.2989856770834,317.93288663455417L592.4039114583333,321.8752829347338L592.4857578125,325.8246534892491L592.5676041666667,321.95435632978166L594.2863776041667,316.41574747221813L595.5959192708334,316.68510018076216L597.51930859375,325.5689626761845L599.4426979166666,322.8626335348402L599.6473138020833,324.3248066561562L600.7113164062499,325.2335615498679L601.8980885416667,312.8605655942644L604.9264036458334,325.7978392328535L605.2947122395833,327.6457618645259L607.5864101562499,325.03446091924394L608.0365651041667,325.9927362033299L609.79626171875,327.957565171378L609.9599544270834,313.1662544863564L610.6556484375001,321.848436832428L611.5559583333334,313.83068755694796L612.7018072916667,315.2256339618138L612.8655,314.8115097454616L613.72488671875,317.13680257116044L614.2568880208333,328.82578022139415L614.8298125,326.10668087005615L614.9935052083333,326.3281054837363L615.320890625,331.986295734133L615.3618138020834,321.6533806324005L615.7710455729166,329.2560821601323L615.81196875,324.90914726257324L617.4488958333334,335.18021760668074L617.6125885416667,325.44355348178317L621.5412135416667,325.26381516456604L622.4415234375,326.6079991885594L623.1372174479167,314.6042884077345L623.4236796875,329.2963990824563L623.79198828125,317.3607748576573L624.0784505208333,322.2297279153551L624.52860546875,317.07871563094005L626.2883020833334,333.59021500178744L628.1298450520834,324.3793905462538L629.7258489583334,321.84872344561984L630.9535442708333,315.00067445210044L632.4677018229166,330.980219738824L635.2095546875,334.85182258060996L635.57786328125,310.8747501713889L635.6187864583334,322.47895400864735L636.3554036458333,326.14113814490184L636.6827890625,322.4401019981929L637.4194062500001,321.9464585440499L637.910484375,329.3250285557338L639.3427955729167,312.556500843593L640.1203359375,332.34472145353044L640.2021822916668,326.0069713251931L640.3249518229167,316.8869077137538L640.856953125,334.6331048692976L642.5757265625,321.47290985924855L643.1486510416668,316.7084750788552L643.9671145833333,329.2074216093336L644.90834765625,330.5916359424591L646.6680442708333,327.95820208958213L647.85481640625,324.3706647668566L648.59143359375,324.2133778163365L650.2692838541667,325.7227147306715L651.3332864583333,331.23616531917025L653.5840611979168,320.85162799698963L653.9523697916667,328.6908809457506L655.0163723958334,322.78400598253523L656.20314453125,323.1184517315456L656.6532994791667,321.54535930497303L658.9449973958334,328.4855066708156L659.39515234375,321.360589333943L659.9680768229167,327.67420026234214L660.500078125,325.67207973343983L661.2366953125,319.1707371643611L662.0142356770833,326.26333090237205L662.464390625,335.4025975976671L662.7099296875,325.45613261631553L663.2010078125,321.84420132637024L663.6511627604167,333.2859273297446L663.8967018229166,321.2831719262259L663.937625,320.1780869960785L665.3290130208334,318.5600281442915L665.6154752604167,329.1837600980486L669.0530221354167,318.88823209490096L669.2576380208334,325.3176347528185L669.5441002604167,325.63128512246266L669.7487161458333,336.4679069859641L669.7896393229166,322.1911943640028L671.0991809895833,335.95471014295305L671.1401041666667,315.35559712137496L671.3447200520834,321.6973279884883L671.91764453125,328.2215359210968L672.2450299479166,325.84006690979004L672.285953125,325.40635745865956L672.6133385416666,326.7998389516558L674.9868828125,324.7461598941258L675.0687291666667,320.13566824368064L676.6647330729166,338.08322708947316L676.70565625,317.4844962188176L677.196734375,325.68281180518017L678.3835065104167,330.29629697118486L680.26597265625,331.46985060828075L681.1662825520833,331.9617743832724L685.2586002604168,318.0002088887351L685.8724479166667,324.5892869404384L686.5681419270834,315.8220441681998L686.89552734375,334.58288386889865L688.2869153645834,334.0730945382799L689.1463020833334,326.6286034924643L689.59645703125,326.2407521520342L690.1284583333334,316.6314079761505L690.2921510416667,322.33755816732133L691.56076953125,333.11959614072526L691.7653854166667,336.7359858580998L692.0109244791666,332.4066935947963L692.4610794270833,316.458325454167L692.6247721354166,313.44137130464827L693.2386197916667,333.5305676119668L693.8115442708333,331.4735765797751L696.47155078125,319.092396225248L698.3540169270833,318.5423855100359L698.3949401041666,335.97747996875216L698.5586328125,325.01608582905357L699.7044817708334,333.7208150795528L700.1955598958333,328.59766796657016L700.6047916666668,327.4343687125615L700.7684843750001,319.96580215862815L701.3414088541666,322.1085223811013L701.9552565104166,328.63298508099143L702.8964895833334,332.8501160485404L703.2647981770833,318.5874793188912L703.83772265625,323.4160836083548L708.7075807291667,326.41176468985424L709.3623515625,330.3908156326839L709.9352760416666,332.91329833439414L710.5082005208334,329.34047382218495L710.8765091145834,324.6882003375462L712.0632812499999,326.69627605165755L712.8408216145833,326.7039190701076L713.4955924479167,329.12111919266835L713.7411315104166,336.6773256914956L714.3549791666667,329.32251272882735L714.6005182291667,328.4129298414503L715.7463671875,325.0570396695818L715.8282135416666,328.22357405935014L716.1555989583333,324.52040423665727L720.6571484375,331.0171291487557L721.5983815104166,329.51744154521396L721.8029973958334,323.22755581992016L723.0306927083333,339.58546236583163L724.340234375,333.946220432009L724.8313125,334.3358551434108L725.2405442708334,320.96684650012423L726.3454700520833,331.61315720421925L726.795625,325.7333831105913L727.7368580729167,328.1597867012024L728.0233203125,327.1844420092446L728.14608984375,333.8246964386531L728.4734752604166,331.27227858134677L728.6780911458334,334.2826087815421L729.0054765625,318.41057528768266L729.251015625,324.6926587649754L729.7011705729167,328.2002628530775L731.4199440104167,330.6602638789586L731.5017903645833,323.64919567108154L733.3842565104167,331.22122958728244L733.4251796875001,324.23930038724626L735.0621067708333,331.42603063583374L735.7987239583333,336.117315360478L737.1491888020834,322.963075535638L737.9267291666666,330.6230041640145L738.3359609375,319.482667854854L739.7273489583333,333.156664780208L740.91412109375,337.6569695813315L741.40519921875,334.27057102748324L741.7325846354167,331.8846117428371L742.7556640624999,334.56282094546725L744.1879752604167,330.8516896452223L744.2288984375,324.31729102134705L746.2750572916667,329.09022865976607L746.3978268229166,311.55431004932944L746.4796731770833,308.1838344505855L746.7252122395834,331.8218116079058L749.4261419270833,336.34619191714694L750.6947604166667,325.3168386050633L750.7766067708333,324.8763459750584L752.6590729166667,334.84382925714766L753.43661328125,334.78099727630615L753.4775364583334,327.83928946086337L753.5593828125,339.36206330571855L754.0913841145833,326.7773238931383L756.4240052083334,339.125161579677L756.5467747395834,337.99702021053855L759.2886276041667,329.814882346562L761.29386328125,337.0494133063725L761.3757096354167,343.16303191866194L761.78494140625,331.8956304277693L763.2172526041667,330.36218615940635L763.5855611979167,321.32154624802723L766.5320299479167,333.9239601407732L766.69572265625,326.1121902125222L769.0692669270833,335.03200674057007L770.0105,332.61805490085055L770.7471171875,316.5996576036726L771.9748125,326.72347245897566L772.0566588541667,334.2978311266218L772.6295833333332,323.77568762642994L772.7523528645834,322.74107769557406L773.7345091145834,327.4121721131461L775.3714361979168,335.3440011228834L775.5351289062501,334.36843350955417L777.6222109375,327.10791628701344L778.1951354166666,333.15067774908886L779.3000611979168,327.44245757375444L779.7502161458334,322.88626320021496L779.8729856770833,326.77550867625644L780.6505260416666,333.5517132963453L782.4511458333333,337.30013615744457L782.6966848958334,336.7126746518271L782.7376080729167,321.64328547886436L783.39237890625,329.7027847426278L783.8834570312499,330.67277932167053L785.35669140625,324.12347681181774L786.0114622395832,335.7961812019348L786.9117721354166,332.64595191819325L786.9936184895832,321.1656605175563L787.7711588541667,329.1139857087816L788.30316015625,324.7172438076564L788.3440833333333,321.3392525741032L788.4259296875,323.04077955654685L788.7123919270833,338.08147556441173L789.03977734375,329.1294946670532L793.6640963541668,326.4533872944968L794.8508684895833,338.7717993600028L795.17825390625,320.56912292752946L795.2191770833333,340.778792313167L798.61580078125,318.79947754314964L798.9022630208333,332.0616750035967L800.58011328125,333.3658924102783L802.78996484375,331.36179743494307L803.4038125,328.2267268044608L803.4447356770834,327.8342578070504L804.0585833333333,333.30290119988575L804.0995065104167,328.8396331923348L804.99981640625,328.9226873261588L805.6955104166667,338.1803252696991L806.0638190104168,332.91087804521834L807.45520703125,334.2856341430119L808.68290234375,328.4442980630057L808.9693645833333,330.0583443301064L810.8518307291666,325.93423526627674L812.85706640625,329.90704441070557L813.2662981770833,337.890049798148L813.5527604166667,326.8306976386479L813.59368359375,327.4181272983551L813.7573763020833,339.1052578857967L815.3533802083334,333.1989879948752L815.80353515625,326.6672644274575L816.4992291666667,336.5274588380541L816.9903072916667,330.76293509347096L818.6681575520832,341.08639195987155L818.7909270833334,317.43809672764365L819.8958528645834,333.0335803372519L820.1823151041666,333.9502648626055L821.082625,329.08663007191245L821.7373958333334,329.98143645695274L821.94201171875,328.5500583308083L822.06478125,322.805342742375L822.92416796875,341.58513075964794L823.4152460937499,347.79033820969715L823.7426315104166,341.6962411403656L823.90632421875,327.3351687022618L824.0700169270833,335.2694498470851L826.9346393229167,348.209748847144L829.7583385416666,322.8423158441271L830.9451106770833,331.50045452799117L831.8863437499999,320.36823892593384L832.0500364583332,332.78116965293884L832.5820377604166,329.4619341237204L833.4414244791667,331.1527290344238L833.7688098958333,325.4171532222203L834.9965052083332,332.34510360445296L835.0374283854167,332.812951871327L835.5285065104166,329.99121315138683L836.0195846354167,339.4942556789943L836.3469700520833,326.0224165916443L836.6334322916666,326.10668087005615L837.0426640625,333.94969163622176L837.6155885416666,320.75790548324585L838.14758984375,340.38078212738037L838.5158984375,327.23577761650085L839.3343619791667,330.2800555569785L839.8254401041667,330.1547100543976L840.6439036458333,334.95872930118014L842.4445234375,340.54701777866904L843.67221875,322.9428215367453L843.8768346354167,331.44717632021224L843.9177578125,338.79097059794833L844.4088359375,337.96523799215043L844.6134518229167,321.4697571141379L844.8589908854167,327.50630862372265L845.9639166666666,323.91262504032676L849.4833098958334,322.63792879240856L849.5242330729167,328.2331278324127L849.7697721354167,329.26305641446794L849.8925416666666,330.3269645827157L850.3836197916667,337.40127876826693L850.9974674479166,336.15804627963473L854.1485520833334,337.6057932036263L855.2125546875001,324.6055283546448L855.45809375,326.788565499442L855.4990169270834,329.83755663463046L856.56301953125,330.25282730375017L856.931328125,331.5715982913971L857.9544075520834,322.3957406452724L859.01841015625,341.8860109192984L860.859953125,324.4636229787554L860.98272265625,326.08782809121266L861.8830325520834,344.1459559372493L863.43811328125,329.08551546505515L863.8473450520834,335.8764328956604L864.0110377604167,331.1344176360539L864.0519609375,345.51950189045493L867.9396627604167,333.43866031510487L868.0215091145833,344.6462870325361L868.226125,332.94877467836653L870.681515625,324.1064074039459L870.7633619791666,324.56460636002674L872.03198046875,329.90997423444475L872.4412122395834,325.4846665518624L874.48737109375,333.91370575768605L874.8147565104167,330.71672667775834L875.4286041666667,330.4790606498718L875.8378359375,333.6465185710362L876.0015286458333,336.42567930902754L876.574453125,319.4285298074995L877.67937890625,324.30675002506797L878.41599609375,333.5986223220825L878.7843046875,326.06286089760914L878.9479973958333,326.1114259106772L879.7664609375,319.0765369619642L879.8892304687499,327.43401840754916L881.7307734375,318.288478067943L884.6363190104166,331.22495555877686L885.29108984375,335.4955876554762L885.413859375,338.60330264908924L886.1504765625,331.37405811037337L886.4369388020833,324.5624726840428L888.0738658854166,332.0103075504303L889.1378684895834,327.1939002445766L890.6111028645834,334.2522914750235L890.69294921875,327.41354148728504L890.8566419270833,334.00666396958485L893.39387890625,327.7606300626482L893.8031106770833,332.4631245476859L894.0486497395834,331.70117930003573L894.62157421875,326.28253398622786L896.0129622395833,323.07068286623274L896.6677330729167,334.10439906801497L897.1178880208333,335.03089213371277L898.9185078125,331.96101008142745L899.53235546875,322.0422510419573L899.5732786458334,339.5032362256731L899.7369713541667,321.199353490557L900.2689726562501,327.8980451651982" style="fill: none;" fill="none"></path></g></g></g></g></g><g><g opacity="0.999905"><span fill="rgb(0, 0, 0)" stroke="none" stroke-width="1px">Alt + Scroll to Zoom</span></g></g></g><g transform="translate(40, 374)" clip-path="url(#clip_1)"><clipPath id="clip_1"><rect width="982" height="26"></rect></clipPath><g><g><line x1="0" y1="0" x2="0" y2="5" style="visibility: inherit;" fill="rgb(0, 0, 0)" stroke="rgb(204, 204, 204)" stroke-width="1px"></line><line x1="81.84635416666666" y1="0" x2="81.84635416666666" y2="5" style="visibility: inherit;" fill="rgb(0, 0, 0)" stroke="rgb(204, 204, 204)" stroke-width="1px"></line><line x1="163.69270833333331" y1="0" x2="163.69270833333331" y2="5" style="visibility: inherit;" fill="rgb(0, 0, 0)" stroke="rgb(204, 204, 204)" stroke-width="1px"></line><line x1="245.5390625" y1="0" x2="245.5390625" y2="5" style="visibility: inherit;" fill="rgb(0, 0, 0)" stroke="rgb(204, 204, 204)" stroke-width="1px"></line><line x1="327.38541666666663" y1="0" x2="327.38541666666663" y2="5" style="visibility: inherit;" fill="rgb(0, 0, 0)" stroke="rgb(204, 204, 204)" stroke-width="1px"></line><line x1="409.23177083333337" y1="0" x2="409.23177083333337" y2="5" style="visibility: inherit;" fill="rgb(0, 0, 0)" stroke="rgb(204, 204, 204)" stroke-width="1px"></line><line x1="491.078125" y1="0" x2="491.078125" y2="5" style="visibility: inherit;" fill="rgb(0, 0, 0)" stroke="rgb(204, 204, 204)" stroke-width="1px"></line><line x1="572.9244791666667" y1="0" x2="572.9244791666667" y2="5" style="visibility: inherit;" fill="rgb(0, 0, 0)" stroke="rgb(204, 204, 204)" stroke-width="1px"></line><line x1="654.7708333333333" y1="0" x2="654.7708333333333" y2="5" style="visibility: inherit;" fill="rgb(0, 0, 0)" stroke="rgb(204, 204, 204)" stroke-width="1px"></line><line x1="736.6171875" y1="0" x2="736.6171875" y2="5" style="visibility: inherit;" fill="rgb(0, 0, 0)" stroke="rgb(204, 204, 204)" stroke-width="1px"></line><line x1="818.4635416666667" y1="0" x2="818.4635416666667" y2="5" style="visibility: inherit;" fill="rgb(0, 0, 0)" stroke="rgb(204, 204, 204)" stroke-width="1px"></line><line x1="900.3098958333333" y1="0" x2="900.3098958333333" y2="5" style="visibility: inherit;" fill="rgb(0, 0, 0)" stroke="rgb(204, 204, 204)" stroke-width="1px"></line><line x1="982.15625" y1="0" x2="982.15625" y2="5" style="visibility: inherit;" fill="rgb(0, 0, 0)" stroke="rgb(204, 204, 204)" stroke-width="1px"></line></g><g transform="translate(0, 8)"><text x="0" y="0" dx="0em" dy="0.95em" style="text-anchor: middle; visibility: hidden; font-family: Roboto, sans-serif; font-size: 12px; font-weight: 200;" fill="rgb(33, 33, 33)" stroke="none" stroke-width="1px">-2k</text><text x="81.84635416666666" y="0" dx="0em" dy="0.95em" style="text-anchor: middle; visibility: inherit; font-family: Roboto, sans-serif; font-size: 12px; font-weight: 200;" fill="rgb(33, 33, 33)" stroke="none" stroke-width="1px">0</text><text x="163.69270833333331" y="0" dx="0em" dy="0.95em" style="text-anchor: middle; visibility: inherit; font-family: Roboto, sans-serif; font-size: 12px; font-weight: 200;" fill="rgb(33, 33, 33)" stroke="none" stroke-width="1px">2k</text><text x="245.5390625" y="0" dx="0em" dy="0.95em" style="text-anchor: middle; visibility: inherit; font-family: Roboto, sans-serif; font-size: 12px; font-weight: 200;" fill="rgb(33, 33, 33)" stroke="none" stroke-width="1px">4k</text><text x="327.38541666666663" y="0" dx="0em" dy="0.95em" style="text-anchor: middle; visibility: inherit; font-family: Roboto, sans-serif; font-size: 12px; font-weight: 200;" fill="rgb(33, 33, 33)" stroke="none" stroke-width="1px">6k</text><text x="409.23177083333337" y="0" dx="0em" dy="0.95em" style="text-anchor: middle; visibility: inherit; font-family: Roboto, sans-serif; font-size: 12px; font-weight: 200;" fill="rgb(33, 33, 33)" stroke="none" stroke-width="1px">8k</text><text x="491.078125" y="0" dx="0em" dy="0.95em" style="text-anchor: middle; visibility: inherit; font-family: Roboto, sans-serif; font-size: 12px; font-weight: 200;" fill="rgb(33, 33, 33)" stroke="none" stroke-width="1px">10k</text><text x="572.9244791666667" y="0" dx="0em" dy="0.95em" style="text-anchor: middle; visibility: inherit; font-family: Roboto, sans-serif; font-size: 12px; font-weight: 200;" fill="rgb(33, 33, 33)" stroke="none" stroke-width="1px">12k</text><text x="654.7708333333333" y="0" dx="0em" dy="0.95em" style="text-anchor: middle; visibility: inherit; font-family: Roboto, sans-serif; font-size: 12px; font-weight: 200;" fill="rgb(33, 33, 33)" stroke="none" stroke-width="1px">14k</text><text x="736.6171875" y="0" dx="0em" dy="0.95em" style="text-anchor: middle; visibility: inherit; font-family: Roboto, sans-serif; font-size: 12px; font-weight: 200;" fill="rgb(33, 33, 33)" stroke="none" stroke-width="1px">16k</text><text x="818.4635416666667" y="0" dx="0em" dy="0.95em" style="text-anchor: middle; visibility: inherit; font-family: Roboto, sans-serif; font-size: 12px; font-weight: 200;" fill="rgb(33, 33, 33)" stroke="none" stroke-width="1px">18k</text><text x="900.3098958333333" y="0" dx="0em" dy="0.95em" style="text-anchor: middle; visibility: inherit; font-family: Roboto, sans-serif; font-size: 12px; font-weight: 200;" fill="rgb(33, 33, 33)" stroke="none" stroke-width="1px">20k</text><text x="982.15625" y="0" dx="0em" dy="0.95em" style="text-anchor: middle; visibility: hidden; font-family: Roboto, sans-serif; font-size: 12px; font-weight: 200;" fill="rgb(33, 33, 33)" stroke="none" stroke-width="1px">22k</text></g><line x1="0" y1="0" x2="982.15625" y2="0" fill="rgb(0, 0, 0)" stroke="rgb(204, 204, 204)" stroke-width="1px"></line></g></g></g></g></svg>