<svg viewBox="0 0 1023 400" xmlns="http://www.w3.org/2000/svg"><g><g><g><g><g><line x1="40.84375" y1="374" x2="35.84375" y2="374" style="visibility: inherit;" fill="rgb(0, 0, 0)" stroke="rgb(204, 204, 204)" stroke-width="1px"></line><line x1="40.84375" y1="332.4444444444444" x2="35.84375" y2="332.4444444444444" style="visibility: inherit;" fill="rgb(0, 0, 0)" stroke="rgb(204, 204, 204)" stroke-width="1px"></line><line x1="40.84375" y1="290.88888888888886" x2="35.84375" y2="290.88888888888886" style="visibility: inherit;" fill="rgb(0, 0, 0)" stroke="rgb(204, 204, 204)" stroke-width="1px"></line><line x1="40.84375" y1="249.33333333333337" x2="35.84375" y2="249.33333333333337" style="visibility: inherit;" fill="rgb(0, 0, 0)" stroke="rgb(204, 204, 204)" stroke-width="1px"></line><line x1="40.84375" y1="207.77777777777774" x2="35.84375" y2="207.77777777777774" style="visibility: inherit;" fill="rgb(0, 0, 0)" stroke="rgb(204, 204, 204)" stroke-width="1px"></line><line x1="40.84375" y1="166.22222222222226" x2="35.84375" y2="166.22222222222226" style="visibility: inherit;" fill="rgb(0, 0, 0)" stroke="rgb(204, 204, 204)" stroke-width="1px"></line><line x1="40.84375" y1="124.66666666666669" x2="35.84375" y2="124.66666666666669" style="visibility: inherit;" fill="rgb(0, 0, 0)" stroke="rgb(204, 204, 204)" stroke-width="1px"></line><line x1="40.84375" y1="83.11111111111119" x2="35.84375" y2="83.11111111111119" style="visibility: inherit;" fill="rgb(0, 0, 0)" stroke="rgb(204, 204, 204)" stroke-width="1px"></line><line x1="40.84375" y1="41.55555555555557" x2="35.84375" y2="41.55555555555557" style="visibility: inherit;" fill="rgb(0, 0, 0)" stroke="rgb(204, 204, 204)" stroke-width="1px"></line><line x1="40.84375" y1="0" x2="35.84375" y2="0" style="visibility: inherit;" fill="rgb(0, 0, 0)" stroke="rgb(204, 204, 204)" stroke-width="1px"></line></g><g transform="translate(30.84375, 0)"><text x="0" y="374" dx="0em" dy="0.3em" style="text-anchor: end; visibility: hidden; font-family: Roboto, sans-serif; font-size: 12px; font-weight: 200;" fill="rgb(33, 33, 33)" stroke="none" stroke-width="1px">0.7</text><text x="0" y="332.4444444444444" dx="0em" dy="0.3em" style="text-anchor: end; visibility: inherit; font-family: Roboto, sans-serif; font-size: 12px; font-weight: 200;" fill="rgb(33, 33, 33)" stroke="none" stroke-width="1px">0.8</text><text x="0" y="290.88888888888886" dx="0em" dy="0.3em" style="text-anchor: end; visibility: inherit; font-family: Roboto, sans-serif; font-size: 12px; font-weight: 200;" fill="rgb(33, 33, 33)" stroke="none" stroke-width="1px">0.9</text><text x="0" y="249.33333333333337" dx="0em" dy="0.3em" style="text-anchor: end; visibility: inherit; font-family: Roboto, sans-serif; font-size: 12px; font-weight: 200;" fill="rgb(33, 33, 33)" stroke="none" stroke-width="1px">1</text><text x="0" y="207.77777777777774" dx="0em" dy="0.3em" style="text-anchor: end; visibility: inherit; font-family: Roboto, sans-serif; font-size: 12px; font-weight: 200;" fill="rgb(33, 33, 33)" stroke="none" stroke-width="1px">1.1</text><text x="0" y="166.22222222222226" dx="0em" dy="0.3em" style="text-anchor: end; visibility: inherit; font-family: Roboto, sans-serif; font-size: 12px; font-weight: 200;" fill="rgb(33, 33, 33)" stroke="none" stroke-width="1px">1.2</text><text x="0" y="124.66666666666669" dx="0em" dy="0.3em" style="text-anchor: end; visibility: inherit; font-family: Roboto, sans-serif; font-size: 12px; font-weight: 200;" fill="rgb(33, 33, 33)" stroke="none" stroke-width="1px">1.3</text><text x="0" y="83.11111111111119" dx="0em" dy="0.3em" style="text-anchor: end; visibility: inherit; font-family: Roboto, sans-serif; font-size: 12px; font-weight: 200;" fill="rgb(33, 33, 33)" stroke="none" stroke-width="1px">1.4</text><text x="0" y="41.55555555555557" dx="0em" dy="0.3em" style="text-anchor: end; visibility: inherit; font-family: Roboto, sans-serif; font-size: 12px; font-weight: 200;" fill="rgb(33, 33, 33)" stroke="none" stroke-width="1px">1.5</text><text x="0" y="0" dx="0em" dy="0.3em" style="text-anchor: end; visibility: hidden; font-family: Roboto, sans-serif; font-size: 12px; font-weight: 200;" fill="rgb(33, 33, 33)" stroke="none" stroke-width="1px">1.6</text></g><line x1="40.84375" y1="0" x2="40.84375" y2="374" fill="rgb(0, 0, 0)" stroke="rgb(204, 204, 204)" stroke-width="1px"></line></g></g><g transform="translate(40, 0)" clip-path="url(#clip_0)"><clipPath id="clip_0"><rect width="982" height="374"></rect></clipPath><g><g><g><line x1="0" y1="0" x2="0" y2="374" fill="rgb(0, 0, 0)" stroke="rgb(66, 66, 66)" stroke-width="1px" opacity="0.25"></line><line x1="81.84635416666666" y1="0" x2="81.84635416666666" y2="374" fill="rgb(0, 0, 0)" stroke="rgb(66, 66, 66)" stroke-width="1px" opacity="0.25"></line><line x1="163.69270833333331" y1="0" x2="163.69270833333331" y2="374" fill="rgb(0, 0, 0)" stroke="rgb(66, 66, 66)" stroke-width="1px" opacity="0.25"></line><line x1="245.5390625" y1="0" x2="245.5390625" y2="374" fill="rgb(0, 0, 0)" stroke="rgb(66, 66, 66)" stroke-width="1px" opacity="0.25"></line><line x1="327.38541666666663" y1="0" x2="327.38541666666663" y2="374" fill="rgb(0, 0, 0)" stroke="rgb(66, 66, 66)" stroke-width="1px" opacity="0.25"></line><line x1="409.23177083333337" y1="0" x2="409.23177083333337" y2="374" fill="rgb(0, 0, 0)" stroke="rgb(66, 66, 66)" stroke-width="1px" opacity="0.25"></line><line x1="491.078125" y1="0" x2="491.078125" y2="374" fill="rgb(0, 0, 0)" stroke="rgb(66, 66, 66)" stroke-width="1px" opacity="0.25"></line><line x1="572.9244791666667" y1="0" x2="572.9244791666667" y2="374" fill="rgb(0, 0, 0)" stroke="rgb(66, 66, 66)" stroke-width="1px" opacity="0.25"></line><line x1="654.7708333333333" y1="0" x2="654.7708333333333" y2="374" fill="rgb(0, 0, 0)" stroke="rgb(66, 66, 66)" stroke-width="1px" opacity="0.25"></line><line x1="736.6171875" y1="0" x2="736.6171875" y2="374" fill="rgb(0, 0, 0)" stroke="rgb(66, 66, 66)" stroke-width="1px" opacity="0.25"></line><line x1="818.4635416666667" y1="0" x2="818.4635416666667" y2="374" fill="rgb(0, 0, 0)" stroke="rgb(66, 66, 66)" stroke-width="1px" opacity="0.25"></line><line x1="900.3098958333333" y1="0" x2="900.3098958333333" y2="374" fill="rgb(0, 0, 0)" stroke="rgb(66, 66, 66)" stroke-width="1px" opacity="0.25"></line><line x1="982.15625" y1="0" x2="982.15625" y2="374" fill="rgb(0, 0, 0)" stroke="rgb(66, 66, 66)" stroke-width="1px" opacity="0.25"></line></g><g><line x1="0" y1="374" x2="982.15625" y2="374" fill="rgb(0, 0, 0)" stroke="rgb(66, 66, 66)" stroke-width="1px" opacity="0.25"></line><line x1="0" y1="332.4444444444444" x2="982.15625" y2="332.4444444444444" fill="rgb(0, 0, 0)" stroke="rgb(66, 66, 66)" stroke-width="1px" opacity="0.25"></line><line x1="0" y1="290.88888888888886" x2="982.15625" y2="290.88888888888886" fill="rgb(0, 0, 0)" stroke="rgb(66, 66, 66)" stroke-width="1px" opacity="0.25"></line><line x1="0" y1="249.33333333333337" x2="982.15625" y2="249.33333333333337" fill="rgb(0, 0, 0)" stroke="rgb(66, 66, 66)" stroke-width="1px" opacity="0.25"></line><line x1="0" y1="207.77777777777774" x2="982.15625" y2="207.77777777777774" fill="rgb(0, 0, 0)" stroke="rgb(66, 66, 66)" stroke-width="1px" opacity="0.25"></line><line x1="0" y1="166.22222222222226" x2="982.15625" y2="166.22222222222226" fill="rgb(0, 0, 0)" stroke="rgb(66, 66, 66)" stroke-width="1px" opacity="0.25"></line><line x1="0" y1="124.66666666666669" x2="982.15625" y2="124.66666666666669" fill="rgb(0, 0, 0)" stroke="rgb(66, 66, 66)" stroke-width="1px" opacity="0.25"></line><line x1="0" y1="83.11111111111119" x2="982.15625" y2="83.11111111111119" fill="rgb(0, 0, 0)" stroke="rgb(66, 66, 66)" stroke-width="1px" opacity="0.25"></line><line x1="0" y1="41.55555555555557" x2="982.15625" y2="41.55555555555557" fill="rgb(0, 0, 0)" stroke="rgb(66, 66, 66)" stroke-width="1px" opacity="0.25"></line><line x1="0" y1="0" x2="982.15625" y2="0" fill="rgb(0, 0, 0)" stroke="rgb(66, 66, 66)" stroke-width="1px" opacity="0.25"></line></g></g></g><g><g><line x1="0" y1="664.8888888888888" x2="982.15625" y2="664.8888888888888" fill="rgb(0, 0, 0)" stroke="rgb(153, 153, 153)" stroke-width="1.5px"></line></g></g><g><g><line x1="81.84635416666666" y1="0" x2="81.84635416666666" y2="374" fill="rgb(0, 0, 0)" stroke="rgb(153, 153, 153)" stroke-width="1.5px"></line></g></g><g><g><g><g><g><path stroke="rgb(187, 187, 187)" stroke-width="2px" d="M118.1042890625,-13.003409809536357L120.39598697916666,3.463197443220369L122.72860807291667,5.005268414815294L123.38337890624999,40.213667975531735L123.83353385416666,7.278868251376728L124.28368880208333,25.859909481472478L125.06122916666666,35.38548829820423L125.67507682291668,29.96374331580273L125.92061588541668,33.89820644590591L127.23015755208333,23.409805456797297L127.31200390624998,36.75977378421364L127.88492838541667,40.69176001018952L128.17139062500002,36.944451755947576L128.94893098958335,62.063380506303595L128.98985416666667,37.589288976457404L129.48093229166668,34.42573748694531L129.89016406250002,49.737463421291814L129.97201041666668,53.64289723502266L130.29939583333334,51.008610619439054L131.69078385416665,59.71116373274063L133.082171875,76.04416677686905L133.16401822916666,81.9691691398621L133.28678776041664,61.509098900689054L133.45048046875,55.43528413772587L133.69601953125,60.17459249496464L133.85971223958333,68.2728800773621L136.06956380208334,75.27271021736996L136.88802734375,84.56303268008763L138.11572265625,91.88377051883275L138.15664583333333,92.80498070187042L139.83449609375,89.87609110938179L141.47142317708335,89.49499464035038L141.51234635416668,102.25947237014775L142.98558072916668,93.683142291175L143.31296614583334,96.608712832133L143.6403515625,101.88823397954307L143.76312109375002,101.0749672783746L145.1954322916667,118.33775059382123L145.31820182291668,100.78378242916534L145.89112630208334,106.13112121158177L146.01389583333332,119.82562690311009L146.70958984375,102.19606362448799L147.15974479166667,99.38918632931183L148.42836328125,121.98647806379532L148.75574869791666,110.91892735163373L150.18805989583333,123.35972325007123L150.80190755208332,112.1001629299588L151.4976015625,116.09481483035619L151.57944791666665,132.28301805920074L151.86591015625,112.95276286866932L154.56683984375,126.12761407428319L157.43146223958334,125.46375423007542L157.96346354166667,139.94759972890222L158.24992578125,128.25899007585315L159.5594674479167,130.6235913700528L159.68223697916667,132.75382799572418L159.96869921875,122.60575363371109L161.23731770833334,152.57148838043213L162.05578125,148.519768608941L162.09670442708332,136.23719734615753L162.83332161458333,138.47919188605417L166.55733072916667,127.90528816647003L166.92563932291665,137.82548734876846L167.33487109375,147.48685004976062L167.78502604166667,138.38412830564712L172.24565234375,160.06283537546796L173.47334765625,149.81241533491348L176.74720182291665,168.02112833658856L178.38412890625,191.64291715621948L179.81644010416665,166.35833305782742L181.53521354166665,172.07700930701364L181.73982942708332,169.73633490668405L182.27183072916665,184.76539654201932L182.59921614583334,182.59394423166913L182.72198567708332,194.04472155041168L183.54044921875,171.68367693159317L184.27706640625,152.449228392707L184.84999088541667,190.8855294121636L185.3819921875,192.9373472531637L187.30538151041668,178.73299561606515L187.3463046875,180.156076113383L188.20569140625,188.20804558859933L189.35154036458334,194.38886260986328L189.67892578125,178.09727340274387L190.0063111979167,172.2285958396064L191.68416145833334,191.49975209765964L192.05247005208332,190.87042029698694L192.6663177083333,192.180157661438L193.03462630208332,190.3889596727159L193.7303203125,185.26800992753772L193.975859375,182.96453862720065L194.50786067708333,197.89576254950632L194.54878385416666,185.8296727074517L194.58970703125,207.3436656528049L194.99893880208333,188.84931606716583L195.12170833333332,177.74228350321454L195.81740234375,181.690270529853L196.922328125,196.3863371743096L197.82263802083332,178.63332499398123L198.23186979166667,211.73605881796945L198.92756380208334,193.97531869676376L201.38295442708335,194.36993906233047L202.65157291666668,185.31328773498535L202.77434244791667,195.6849274635315L203.0608046875,187.65693442026776L203.51095963541667,189.40017954508465L206.0072734375,203.55727185143363L208.0125091145833,197.16096417109173L208.05343229166667,201.74724939134384L208.83097265625,207.01740784115265L208.87189583333333,199.52586269378662L208.91281901041665,207.25791523191666L209.52666666666667,212.54130034976535L210.54974609375,217.7057940695021L211.69559505208332,207.82116323047214L212.47313541666665,206.71091572443646L212.75959765625,218.82149076461792L213.49621484375,242.55984269248117L213.618984375,217.3540241453383L214.47837109375,203.78623686896432L215.46052734375,214.86022753185696L215.583296875,214.22187980016076L217.13837760416666,210.6061446931627L218.529765625,214.0685594346788L219.18453645833335,216.22827121946548L221.14884895833333,212.40784475538467L223.48147005208332,219.62802028656006L224.38177994791667,223.82037867440116L224.422703125,230.61848974227905L224.70916536458333,207.31265481313073L225.07747395833331,202.76545514000784L226.1414765625,205.70970153808594L227.77840364583332,193.42822011311853L227.90117317708334,217.63876904381644L229.16979166666667,237.27403020858765L229.8245625,227.14131265216403L231.37964322916667,238.840424378713L231.50241276041666,214.46981790330673L231.58425911458335,210.59504816267227L231.66610546875,224.44906648000085L231.788875,232.94063689973618L231.95256770833333,223.10792197121512L232.07533723958335,244.98398876190186L232.85287760416668,216.33309380213421L233.7531875,221.11867072847153L235.75842317708333,237.0242096583048L236.61780989583335,226.23897647857666L239.31873958333333,217.93778091006808L239.40058593749998,225.28125672870212L240.1781263020833,226.18909162945218L241.52859114583333,217.21620919969345L241.89689973958332,230.26558044221665L242.06059244791666,221.53776290681625L242.30613151041666,228.6440503862169L242.79720963541666,214.3264051543342L242.91997916666665,225.47490109337699L244.51598307291667,229.44091998206247L246.030140625,232.77057266235352L246.11198697916666,235.3471474117703L246.48029557291667,229.91490035586887L246.93045052083335,226.01115083694458L247.17598958333332,228.94529146618314L247.46245182291668,237.9000924958123L248.976609375,210.26329162385727L249.99968880208334,243.65245464113022L250.24522786458337,217.8286485142178L250.49076692708334,245.40486431121826L250.61353645833333,240.77349943584866L251.51384635416667,233.12110413445365L252.94615755208335,227.46281480789185L253.3963125,235.8473334312439L254.82862369791667,235.26758925120032L256.05631901041664,233.11322757932876L258.5526328125,240.31220081117416L258.96186458333335,238.541016207801L261.7037174479167,238.74823400709366L263.6680299479167,244.89615774154663L264.11818489583334,240.67452234692044L267.02373046875,235.02341604232788L267.43296223958333,248.5270019637214L267.5966549479167,242.31888945897424L268.619734375,228.1588248676724L270.46127734375,251.96266614066232L270.584046875,257.81455029381647L272.0982044270834,228.28945679134793L273.6123619791667,246.3513389163547L273.7760546875,239.4634648429023L273.85790104166665,219.76910474565292L274.1034401041667,236.81372234556412L274.47174869791667,233.8452022870382L275.4129817708333,246.39542780982126L275.6994440104167,248.79465622372098L277.29544791666666,251.918057097329L277.33637109374996,253.43491318490769L278.56406640625,245.4357760747274L279.5052994791667,262.7026462819841L279.58714583333335,267.73430363337195L279.7099153645833,249.14518769582116L279.75083854166667,243.8551149368286L280.07822395833335,252.83047427071463L281.6333046875,241.91976112789578L282.77915364583333,258.1588151984745L283.55669401041666,247.8257408671909L284.00684895833336,242.25221119986642L284.3751575520833,251.05381570922006L285.6437760416667,246.4692890908983L286.0939309895833,258.9917732874552L288.38562890625,246.0398929913839L289.16316927083335,251.6707877582974L289.69517057291665,239.51131863064236L290.0634791666667,248.27212852901883L290.14532552083335,257.4588420920902L291.86409895833333,248.14105076260037L292.02779166666664,259.269409471088L292.19148437499996,242.33949730131363L292.64163932291666,252.91899882422555L292.7644088541666,245.01252269744873L292.80533203125,239.99431493547226L294.11487369791666,253.84127407603793L294.64687499999997,245.690203666687L295.3834921875,256.2440940009223L295.6699544270833,260.29677976502313L296.2019557291666,260.62898214658105L296.8158033854167,252.77578422758316L297.18411197916663,254.5366153717041L297.3068815104167,246.21060122383963L298.5345768229167,255.99900433752273L299.5167330729167,257.978620423211L299.63950260416664,257.7730621496836L299.7213489583333,258.33128203286066L299.88504166666667,253.38485495249427L301.2764296875,264.10358325640357L301.60381510416664,251.8145472738478L302.9542799479167,254.61347370677524L304.67305338541667,270.76365645726526L305.04136197916665,260.28932428359985L305.2459778645834,263.89277394612634L307.0875208333333,259.02451796001856L307.29213671875,265.0581325689951L307.78321484375,264.257126543257L309.66568098958334,245.95325088500977L313.75799869791666,254.554275698132L316.3361588541667,252.4864570564694L317.4820078125,271.6100641356574L318.42324088541665,255.26945699585806L320.51032291666667,264.5956450303396L321.9017109375,252.8163063791063L322.4337122395833,261.32090531455145L325.2574114583333,256.016342666414L325.584796875,261.52809834480286L325.9121822916666,248.28317552142673L326.60787630208335,243.98911545011734L327.26264713541667,251.82554472817313L327.7537252604167,250.96823867162072L329.2269596354167,274.22753257221643L329.55434505208336,275.51827208201087L330.57742447916667,248.84107340706717L331.9278893229167,258.81251973576013L332.00973567708337,256.56572000185645L332.82819921875,270.116515715917L333.0328151041667,249.9734148979187L333.11466145833333,260.698756535848L333.1965078125,258.3270712958442L336.5931315104167,271.0351746877035L337.32974869791667,274.15441436237757L338.8029830729166,252.76463815901016L338.88482942708333,269.51465278201636L339.66236979166666,262.4029656516181L340.97191145833335,276.3228696187337L341.0537578125,272.61992271741235L342.0359140625,266.3420358233982L342.0768372395833,267.1658293671078L342.281453125,262.21135234832764L342.48606901041666,276.4369062847561L346.7420794270833,272.41822841432355L347.4786966145833,264.67708563804626L348.9928541666667,280.77322234047784L349.11562369791665,276.2646623717414L349.72947135416666,272.04936785168115L349.93408723958333,279.2462109459771L350.4660885416667,264.1880704561869L350.6707044270833,274.12270998954773L351.3254752604167,271.2773416042328L351.53009114583335,276.3603947162628L351.89839973958334,253.67195290989346L352.55317057291666,259.67027163505554L353.94455859375,264.31203950775995L354.92671484375,272.2594340907203L356.85010416666665,269.8898046811422L357.2593359375,273.1025722556644L357.4230286458333,253.4214635954963L358.07779947916663,275.9313206142849L358.52795442708333,266.10353472497724L360.2058046875,266.1489363776313L361.8427317708333,276.956957075331L362.1701171875,270.6620043118795L362.53842578125,261.2950712045034L363.19319661458337,271.03136025534735L364.871046875,266.72063061926104L364.99381640625,275.88019731309674L365.44397135416665,289.63008658091223L367.2855143229167,287.439785030153L367.94028515625,281.8210518625047L368.1449010416667,279.19392349984906L368.22674739583334,275.0134294827779L369.0452109375,273.962701982922L369.4953658854166,253.51880592770047L370.5184453125,292.38849086231653L373.09660546875,266.9674045774672L373.219375,290.59489027659095L373.4649140625,264.65382750829065L375.0199947916667,298.83738321728174L375.59291927083336,279.542077143987L375.674765625,279.47596857282855L376.77969140625,272.06200006273053L377.51630859375,284.532419734531L378.66215755208333,274.9061299959818L379.5215442708334,284.4045124053955L380.91293229166666,275.85956470171607L381.9769348958334,276.3171975082821L382.1406276041667,269.76365595393713L382.75447526041665,263.1350889735752L383.3273997395833,278.76413109567426L385.6600208333333,249.1192792786492L386.11017578125,275.55889330969916L386.1510989583333,282.0740923881531L387.2969479166666,265.0672475761837L387.460640625,266.9994557168748L387.54248697916665,283.11535811424255L388.03356510416666,278.32906288570825L389.01572135416666,269.50558731291034L389.50679947916666,259.7523066997528L389.8341848958333,264.6838971243964L390.0797239583333,284.16819098260663L390.52987890625,275.23053012953864L390.8572643229167,273.08362393909033L390.93911067708336,285.6432864665985L392.5760377604167,276.6273059050242L392.94434635416667,287.2396511766646L393.0261927083333,270.658066034317L393.14896223958334,278.08043124940656L394.4175807291667,267.87340656916297L394.66311979166665,269.2923506365882L395.317890625,276.85498293240863L398.05974348958335,273.57709754837884L398.1825130208333,276.9006322754754L399.246515625,282.42826490932043L400.8015963541667,284.9414556821187L400.84251953125,274.9980726771885L401.90652213541665,289.53802005449927L402.6022161458333,283.6535398430294L402.7659088541667,277.931940846973L403.0932942708333,292.65924125247534L403.29791015625,279.9026896158854L403.33883333333335,282.9552014933692L403.5843723958333,278.4143922328949L404.9348372395833,281.8206555578444L405.1803763020833,284.4622242715623L406.2034557291667,282.0647792286343L406.32622526041666,268.52716064453125L408.6588463541667,279.6468997266557L411.11423697916666,275.4547147221035L411.44162239583335,266.2729549672868L412.42377864583335,280.5405667357975L413.1603958333334,281.5556763543023L414.2243984375,289.44127217928565L415.12470833333333,291.4999262756771L415.90224869791666,281.5466356542375L415.94317187499996,292.76755626996356L417.08902083333334,285.14139138327704L418.07117708333334,276.4465662108527L418.6031783854167,292.5203612380558L419.66718098958336,281.7963818973965L420.5674908854167,283.53031386269464L420.8130299479167,293.90502495235864L421.14041536458336,293.59424779150226L421.34503125,271.1222378677792L423.63672916666667,288.22357657220624L424.08688411458337,294.52301253212823L424.65980859375003,282.10299785931903L425.47827213541666,288.52484242121375L426.0511966145834,290.5016843742794L426.2558125,285.41216654247705L429.32505078125,283.22939478026495L430.55274609375,292.4685939417945L430.9210546875,282.8195662233565L431.657671875,284.9878480964237L431.9032109375,277.5507453017765L432.27151953124996,295.52229473325946L434.52229427083336,292.8835992283291L434.8906028645833,290.01702854368426L436.20014453125,279.27521549330817L436.3638372395833,284.84076952934265L437.6324557291667,288.70620134141706L437.8779947916667,292.5597935517629L438.6146119791667,268.25316550996564L438.8601510416667,282.1489691999223L440.00600000000003,291.95812877019245L440.0878463541667,287.8531555599636L440.98815625000003,288.75526881217957L441.0700026041667,290.94807203610736L442.9115455729167,292.3111866845025L443.32077734375,291.74053274260626L444.63031901041666,293.0887116591135L444.8349348958333,290.07788607809283L445.12139713541666,287.597365670734L445.5715520833333,291.8432499567667L446.75832421875,283.6349382930332L446.92201692708335,297.9517413775126L449.54110026041667,277.85676680670844L449.74571614583334,289.9199091328515L450.40048697916666,291.58775729603235L451.5054127604167,285.43624205059473L452.16018359375,301.092753039466L452.5284921875,287.9579781426324L453.0195703125,298.18741880522833L454.9429596354167,288.6304823822445L455.10665234375,282.2727648682064L456.37527083333333,287.90373394224383L457.9303515625,288.51414219538367L458.46235286458335,277.7813698450724L458.83066145833334,303.58954670694135L459.2398932291667,298.677821053399L459.4035859375,297.58993999163306L460.46758854166666,277.5945369667477L462.0635924479166,275.89944285816614L462.5546705729166,293.0524497826894L462.63651692708333,276.00394344329834L462.92297916666666,301.62149776352777L463.5368268229166,295.9067102538215L464.27344401041665,293.6773479249742L464.8463684895833,274.90229079458453L465.09190755208334,297.94849663310583L465.37836979166667,286.91904070642255L465.5829856770833,296.03575695885553L465.99221744791663,274.5844544569651L468.2839153645833,283.66649405161536L468.8159166666667,293.32998689015704L470.12545833333337,292.46832148234046L470.2073046875,303.9661599795023L472.17161718750003,288.06084397104047L472.53992578125,283.92726251814105L472.908234375,301.6040108203888L473.31746614583335,304.04096248414777L474.4223919270833,283.09484934806824L474.99531640625,291.81644985410907L477.61439973958335,301.3843589623769L477.65532291666665,305.96197501818335L478.47378645833334,287.45209524366595L478.96486458333334,285.33454036712646L479.29224999999997,290.84285314877826L480.27440624999997,311.0102523962656L480.9701002604167,278.67890082465277L481.0110234375,278.6009774208069L481.747640625,284.7459041012658L483.4254908854167,294.4152672025893L483.8756458333333,294.16911247041486L484.4076471354167,287.70223779148523L484.9396484375,293.7379825380113L485.6353424479167,291.9274646970961L486.74026822916665,281.00558071666296L487.1495,303.1880900859833L487.640578125,307.4044744438595L487.68150130208335,301.84877848625183L488.9501197916667,295.8003272215525L488.99104296875004,300.8367154598236L489.03196614583334,297.99161953396265L489.4411979166667,300.329643646876L489.97319921875004,290.35661209954156L490.21873828125,289.0432336860233L490.5461236979167,284.75900692409937L490.79166276041667,304.25625499089557L493.65628515624996,280.76618793275617L494.76121093750004,292.0531180434757L496.02982942708337,283.11830563015405L496.2344453125,285.41221608055963L496.72552343750004,293.0917830202315L498.8944518229166,288.98616581492956L499.5901458333334,295.6796524524689L499.8766080729166,295.5987319946289L502.0864596354167,303.4246839682261L502.5366145833334,293.16445538732745L505.0738515625,303.89309130774603L505.19662109375,292.0061311721802L505.2375442708333,287.26172039243914L507.2427799479167,300.34742781851025L509.28893880208335,301.03578424453735L509.5344778645833,298.4498963356018L509.5754010416667,290.7087040212419L509.82094010416665,303.9535029994117L511.58063671875,296.57163516680396L512.2763307291666,296.1373595661587L513.6267955729166,286.5322721269395L514.03602734375,293.3734317885505L514.5271054687499,298.2540475262536L515.4683385416668,293.4486553668976L516.2049557291666,311.54352985488043L516.98249609375,300.9786916044023L517.3917278645833,293.4445437060462L517.47357421875,282.32089111540057L520.0108111979167,294.29285860061646L520.42004296875,313.79193957646686L520.7065052083334,290.05911114480756L520.91112109375,298.5018617841933L521.5658919270833,307.9915007220374L521.8523541666667,295.00402731365625L522.62989453125,307.99655360645716L525.5354401041667,302.6154793898264L527.78621484375,289.88572785589434L531.0191458333333,297.723147895601L532.9016119791667,297.01926128069556L532.9425351562501,310.84407689836286L533.1471510416666,288.1635859542423L533.4745364583333,303.7189897166358L534.2111536458334,287.45308600531683L535.8480807291667,288.20207704438104L536.8302369791667,298.47231231795416L537.0757760416666,301.80109808180066L537.11669921875,298.52759681807623L538.5080872395832,287.43396430545386L538.9582421875,318.2359266546037L540.5133229166667,302.4609205722809L540.677015625,292.9360352887048L540.9225546875,295.5018355051676L541.2090169270833,297.24770614835955L541.2499401041667,296.6782411204444L542.4776354166667,301.52425450748865L545.5059505208334,308.4775931570265L545.5468736979167,306.46374625629846L546.8973385416666,303.00848976771033L548.1250338541668,306.3546633985307L548.534265625,290.5949645837148L548.7388815104167,300.6236521667904L550.13026953125,297.59018768204584L550.3348854166667,296.1979446411133L550.4167317708334,298.8896706634098L550.86688671875,294.38683234320746L550.9487330729166,307.71396361456976L553.5268932291666,291.79970598220825L555.3275130208333,301.02287957403394L555.6548984374999,288.8165969583724L557.00536328125,301.26321358150904L560.4838333333333,295.9622672133976L562.1207604166667,312.7990973260667L562.9392239583334,296.59454652998187L563.3075325520833,287.59605291154645L564.1669192708333,304.27322178416784L565.4355377604168,292.06627040439184L565.5173841145834,289.227886888716L565.6810768229167,304.2377772861057L566.5404635416667,296.8765420648787L566.6632330729167,300.7033341725667L566.82692578125,305.5513043138716L567.4816966145834,301.8057794306013L567.8500052083334,307.11603895823157L568.0955442708333,295.28589900334674L569.6097018229167,305.9826571676466L570.51001171875,304.5563071568807L571.0829361979166,302.84615347120496L571.6967838541666,315.52292402585346L571.7786302083334,292.25332620408795L571.9832460937499,302.465279923545L573.4155572916667,310.6735172801548L574.0294049479166,312.5191328525543L575.2571002604167,294.88763758871295L575.5026393229167,290.354209502538L575.7072552083333,291.1815945572323L576.0346406250001,306.1687222056919L578.4491080729167,298.2896654076046L580.08603515625,293.04655475086633L580.2497278645834,304.3592942025926L581.5183463541666,311.9303232034047L582.54142578125,306.3865411546495L582.9915807291667,301.51459458139203L583.6463515625,300.2518193191952L584.01466015625,302.6960283120473L585.2832786458333,305.10647710164386L585.3651249999999,309.78128687540686L585.5288177083332,298.859155204561L585.856203125,294.71363507376776L587.0429752604166,290.68133423063495L587.4112838541666,303.4421709113651L587.9023619791667,322.2701347139146L588.0660546875,297.4934398068322L589.0482109375,306.9280667040083L589.2119036458333,304.4454904662238L589.2937499999999,308.0580799049801L590.15313671875,308.68505864673193L590.1940598958333,298.4908643298679L590.8079075520833,303.26465119255914L591.0534466145833,300.35634467336865L591.2989856770834,297.676656405131L592.4039114583333,302.77660200330945L592.4857578125,307.9491704305013L592.5676041666667,302.8795669078827L594.2863776041667,295.73062713940936L595.5959192708334,296.0754865010579L597.51930859375,307.612311469184L599.4426979166666,304.06375000211926L599.6473138020833,305.97715844048395L600.7113164062499,307.1708776156107L601.8980885416667,291.2057443724738L604.9264036458334,307.913800239563L605.2947122395833,310.3561267852783L607.5864101562499,306.9090688493516L608.0365651041667,308.17070473564996L609.79626171875,310.76962116029523L609.9599544270834,291.59288448757593L610.6556484375001,302.7416776551141L611.5559583333334,292.43557680977716L612.7018072916667,294.2104272312588L612.8655,293.68272280693054L613.72488671875,296.6543885336982L614.2568880208333,311.9232392576005L614.8298125,308.3210032780965L614.9935052083333,308.61317888895667L615.320890625,316.1499275366465L615.3618138020834,302.48789405822754L615.7710455729166,312.49617195129395L615.81196875,306.7443794939253L617.4488958333334,320.46541282865735L617.6125885416667,307.447201040056L621.5412135416667,307.21065669589575L622.4415234375,308.9828072918786L623.1372174479167,293.4189572864109L623.4236796875,312.5498960018158L623.79198828125,296.94173418151007L624.0784505208333,303.23819785647925L624.52860546875,296.579883257548L626.2883020833334,318.3114474614461L628.1298450520834,306.04881527688764L629.7258489583334,302.74204919073316L630.9535442708333,293.92365127139624L632.4677018229166,314.79979186587866L635.2095546875,320.01961962381995L635.57786328125,288.69961277643836L635.6187864583334,303.56309337086145L636.3554036458333,308.3664296997918L636.6827890625,303.5124406814575L637.4194062500001,302.8692877557542L637.910484375,312.5880403253767L639.3427955729167,290.8210068543752L640.1203359375,316.63195784886676L640.2021822916668,308.1894796689351L640.3249518229167,296.33400098482764L640.856953125,319.7229608164893L642.5757265625,302.253232161204L643.1486510416668,296.1054075029161L643.9671145833333,312.43132660124036L644.90834765625,314.2794686158498L646.6680442708333,310.77048807673987L647.85481640625,306.03734721077814L648.59143359375,305.83107063505383L650.2692838541667,307.81479838159345L651.3332864583333,315.14281831847296L653.5840611979168,301.4463806417253L653.9523697916667,311.74378755357526L655.0163723958334,303.9610823260413L656.20314453125,304.3978843688965L656.6532994791667,302.34742882516645L658.9449973958334,311.4707584116194L659.39515234375,302.107243431939L659.9680768229167,310.3938252660963L660.500078125,307.7481201224857L661.2366953125,299.2712377442254L662.0142356770833,308.5276761584812L662.464390625,320.76749605602686L662.7099296875,307.4637219905853L663.2010078125,302.7361541589101L663.6511627604167,317.90052906672156L663.8967018229166,302.00663158628674L663.937625,300.5733957820469L665.3290130208334,298.4837803840637L665.6154752604167,312.3998203807407L669.0530221354167,298.9067860709296L669.2576380208334,307.2814713848962L669.5441002604167,307.69437130292255L669.7487161458333,322.21802065107556L669.7896393229166,303.18801577885944L671.0991809895833,321.5186420016819L671.1401041666667,294.37615688641864L671.3447200520834,302.5450610054864L671.91764453125,311.1200287871891L672.2450299479166,307.96945627530414L672.285953125,307.39820787641736L672.6133385416666,309.2363184293111L674.9868828125,306.5302015940348L675.0687291666667,300.5184828175439L676.6647330729166,324.4270723660787L676.70565625,297.100578043196L677.196734375,307.76226324505274L678.3835065104167,313.88445194562274L680.26597265625,315.45629530482825L681.1662825520833,316.116984711753L685.2586002604168,297.76319943534L685.8724479166667,306.3242470158471L686.5681419270834,294.9715303315057L686.89552734375,319.65487072202893L688.2869153645834,318.96440892749365L689.1463020833334,309.01005323727924L689.59645703125,308.4978542327881L690.1284583333334,296.00670287344195L690.2921510416667,303.37873739666406L691.56076953125,317.6760720147027L691.7653854166667,322.5838098526001L692.0109244791666,316.7154047489166L692.4610794270833,295.78511903021075L692.6247721354166,291.94160781966315L693.2386197916667,318.23087377018396L693.8115442708333,315.4612986511654L696.47155078125,299.17015528678894L698.3540169270833,298.4610424041748L698.3949401041666,321.5496280723148L698.5586328125,306.88491903411017L699.7044817708334,318.48797641860114L700.1955598958333,311.6198432710435L700.6047916666668,310.07598892847693L700.7684843750001,300.29868234528436L701.3414088541666,303.080319987403L701.9552565104166,311.66678060425653L702.8964895833334,317.3126606411404L703.2647981770833,298.51912580596075L703.83772265625,304.7869812382592L708.7075807291667,308.7235992749532L709.3623515625,314.0108235941993L709.9352760416666,317.3978166050381L710.5082005208334,312.6086481677161L710.8765091145834,306.4541358682844L712.0632812499999,309.099469476276L712.8408216145833,309.1095504760742L713.4955924479167,312.3163982497321L713.7411315104166,322.50373154216345L714.3549791666667,312.5846965048048L714.6005182291667,311.37430776490106L715.7463671875,306.9387669298384L715.8282135416666,311.1227286126878L716.1555989583333,306.2338400151994L720.6571484375,314.84925564130145L721.5983815104166,312.84457328584455L721.8029973958334,304.540479739507L723.0306927083333,326.4920425679948L724.340234375,318.7927842405107L724.8313125,319.32016666730243L725.2405442708334,301.59588657485114L726.3454700520833,315.6486516793569L726.795625,307.828891966078L727.7368580729167,311.03804326057434L728.0233203125,309.74504976802405L728.14608984375,318.62839211357965L728.4734752604166,315.1912913322449L728.6780911458334,319.24806398815576L729.0054765625,298.2912753952874L729.251015625,306.45995659298364L729.7011705729167,311.0917673110962L731.4199440104167,314.3713122208913L731.5017903645833,305.0919624434577L733.3842565104167,315.12282970216535L733.4251796875001,305.8650785287221L735.0621067708333,315.3975183698866L735.7987239583333,321.74010199970667L737.1491888020834,304.1949268447028L737.9267291666666,314.3214521408081L738.3359609375,299.674007124371L739.7273489583333,317.72605593999225L740.91412109375,323.8429936038123L741.40519921875,319.2317907280392L741.7325846354167,316.01327673594153L742.7556640624999,319.6276743147108L744.1879752604167,314.6275974909464L744.2288984375,305.9673251310984L746.2750572916667,312.2752568721771L746.3978268229166,289.5555069976383L746.4796731770833,285.3274811903635L746.7252122395834,315.92888861232336L749.4261419270833,322.05201853646173L750.6947604166667,307.2804310851627L750.7766067708333,306.7012565930684L752.6590729166667,320.00877078374225L753.43661328125,319.92351574367945L753.4775364583334,310.61273405287L753.5593828125,326.184311999215L754.0913841145833,309.20654604170056L756.4240052083334,325.85820280181036L756.5467747395834,324.3088745011224L759.2886276041667,313.2413733270433L761.29386328125,323.011893192927L761.3757096354167,331.45147339502967L761.78494140625,316.02808862262305L763.2172526041667,313.97255542543195L763.5855611979167,302.05649166637L766.5320299479167,318.7626650863224L766.69572265625,308.3282358381483L769.0692669270833,320.26413959927027L770.0105,316.99995149506464L770.7471171875,295.9660321076711L771.9748125,309.13535981708105L772.0566588541667,319.2686470614539L772.6295833333332,305.2575682534112L772.7523528645834,303.9050795237223L773.7345091145834,310.0466128455268L775.3714361979168,320.68791312641565L775.5351289062501,319.3643298678928L777.6222109375,309.6438186963399L778.1951354166666,317.71798123253717L779.3000611979168,310.0867139233483L779.7502161458334,304.0945874585046L779.8729856770833,309.2041929827796L780.6505260416666,318.2594324747721L782.4511458333333,323.3546471860673L782.6966848958334,322.5519568655226L782.7376080729167,302.47476646635266L783.39237890625,313.09179308679364L783.8834570312499,314.3880808618333L785.35669140625,305.71319476763404L786.0114622395832,321.30280457602606L786.9117721354166,317.03755089971753L786.9936184895832,301.8540047539605L787.7711588541667,312.3068869378831L788.30316015625,306.4922554228041L788.3440833333333,302.07952687475415L788.4259296875,304.2964056067997L788.7123919270833,324.4246450000339L789.03977734375,312.3275443183051L793.6640963541668,308.77858654657996L794.8508684895833,325.37228375011017L795.17825390625,301.0799969832102L795.2191770833333,328.1397782696618L798.61580078125,298.7923283312056L798.9022630208333,316.251282453537L800.58011328125,318.00847254859076L802.78996484375,315.3113468752967L803.4038125,311.126914580663L803.4447356770834,310.6060464117262L804.0585833333333,317.9234404298994L804.0995065104167,311.9416921933492L804.99981640625,312.0522116555108L805.6955104166667,324.56018119388153L806.0638190104168,317.3945718606313L807.45520703125,319.25217564900714L808.68290234375,311.4159445232815L808.9693645833333,313.566491762797L810.8518307291666,308.0935739411248L812.85706640625,313.364401155048L813.2662981770833,324.16224177678424L813.5527604166667,309.2771378093296L813.59368359375,310.0544646316105L813.7573763020833,325.83080824216205L815.3533802083334,317.78319811820984L815.80353515625,309.06110223134357L816.4992291666667,322.2992631064521L816.9903072916667,314.508755630917L818.6681575520832,328.565533320109L818.7909270833334,297.04098372989233L819.8958528645834,317.5600290563371L820.1823151041666,318.7982334295908L821.082625,312.27047644721137L821.7373958333334,313.46377454863654L821.94201171875,311.5565088325077L822.06478125,303.9889722665151L822.92416796875,329.25681249300635L823.4152460937499,337.9552539454566L823.7426315104166,329.41099977493286L823.90632421875,309.9446387026045L824.0700169270833,320.58658297856647L826.9346393229167,338.5498100121816L829.7583385416666,304.0372471279568L830.9451106770833,315.49738714430066L831.8863437499999,300.8196991284688L832.0500364583332,317.2197024292416L832.5820377604166,312.77056339051984L833.4414244791667,315.03098609712384L833.7688098958333,307.4124253061082L834.9965052083332,316.6324779987335L835.0374283854167,317.26257763968573L835.5285065104166,313.4768278333876L836.0195846354167,326.3663396835327L836.3469700520833,308.2098645899031L836.6334322916666,308.3210032780965L837.0426640625,318.79749035835266L837.6155885416666,301.3248141871558L838.14758984375,327.5894349416097L838.5158984375,309.813016017278L839.3343619791667,313.862729496426L839.8254401041667,313.69524123933576L840.6439036458333,320.1646671295166L842.4445234375,327.81919256846106L843.67221875,304.16844873958166L843.8768346354167,315.42590369118585L843.9177578125,325.3986132409837L844.4088359375,324.26528098848127L844.6134518229167,302.2491205003526L844.8589908854167,310.1712754302555L845.9639166666666,305.43692088127136L849.4833098958334,303.77048455344305L849.5242330729167,311.135435130861L849.7697721354167,312.5054603417714L849.8925416666666,313.9254942470127L850.3836197916667,323.4930070506202L850.9974674479166,321.7956094212002L854.1485520833334,323.7728972170088L855.2125546875001,306.34554839134216L855.45809375,309.2214074664646L855.4990169270834,313.2716658645206L856.56301953125,313.8263685438368L856.931328125,315.59287179840936L857.9544075520834,303.4546049700843L859.01841015625,329.6744185288747L860.859953125,306.15928520096674L860.98272265625,308.2961103916168L861.8830325520834,332.8245451980167L863.43811328125,312.2689903047349L863.8473450520834,321.41203604804144L864.0110377604167,315.0064152081807L864.0519609375,334.75085830688477L867.9396627604167,318.10670656628076L868.0215091145833,333.52516229947406L868.226125,317.44567039277814L870.681515625,305.6908530924055L870.7633619791666,306.2918243408203L872.03198046875,313.3683394326104L872.4412122395834,307.5013213952382L874.48737109375,318.7487944232093L874.8147565104167,314.44690733485754L875.4286041666667,314.1288480758667L875.8378359375,318.38756272527905L876.0015286458333,322.1604326301151L876.574453125,299.60410888989765L877.67937890625,305.9535287751092L878.41599609375,318.3227916823493L878.7843046875,308.26319233576453L878.9479973958333,308.3272450764974L879.7664609375,299.14969605869715L879.8892304687499,310.07551831669275L881.7307734375,298.1340910593668L884.6363190104166,315.12783304850257L885.29108984375,320.8939172426859L885.413859375,325.1407427522871L886.1504765625,315.32779351870215L886.4369388020833,306.28902543915643L888.0738658854166,316.18220159742566L889.1378684895834,309.757558133867L890.6111028645834,319.2069969177246L890.69294921875,310.0483962164985L890.8566419270833,318.8745220767127L893.39387890625,310.50840685102673L893.8031106770833,316.79134662946063L894.0486497395834,315.7668743133545L894.62157421875,308.5530148877038L896.0129622395833,304.33549115392896L896.6677330729167,319.00681352615356L897.1178880208333,320.2626534567939L898.9185078125,316.1159444120195L899.53235546875,302.99399987856543L899.5732786458334,326.37874897321063L899.7369713541667,301.8977964189317L900.2689726562501,310.6906822257572" style="fill: none;" fill="none"></path></g></g></g></g></g></g><g transform="translate(40, 374)" clip-path="url(#clip_1)"><clipPath id="clip_1"><rect width="982" height="26"></rect></clipPath><g><g><line x1="0" y1="0" x2="0" y2="5" style="visibility: inherit;" fill="rgb(0, 0, 0)" stroke="rgb(204, 204, 204)" stroke-width="1px"></line><line x1="81.84635416666666" y1="0" x2="81.84635416666666" y2="5" style="visibility: inherit;" fill="rgb(0, 0, 0)" stroke="rgb(204, 204, 204)" stroke-width="1px"></line><line x1="163.69270833333331" y1="0" x2="163.69270833333331" y2="5" style="visibility: inherit;" fill="rgb(0, 0, 0)" stroke="rgb(204, 204, 204)" stroke-width="1px"></line><line x1="245.5390625" y1="0" x2="245.5390625" y2="5" style="visibility: inherit;" fill="rgb(0, 0, 0)" stroke="rgb(204, 204, 204)" stroke-width="1px"></line><line x1="327.38541666666663" y1="0" x2="327.38541666666663" y2="5" style="visibility: inherit;" fill="rgb(0, 0, 0)" stroke="rgb(204, 204, 204)" stroke-width="1px"></line><line x1="409.23177083333337" y1="0" x2="409.23177083333337" y2="5" style="visibility: inherit;" fill="rgb(0, 0, 0)" stroke="rgb(204, 204, 204)" stroke-width="1px"></line><line x1="491.078125" y1="0" x2="491.078125" y2="5" style="visibility: inherit;" fill="rgb(0, 0, 0)" stroke="rgb(204, 204, 204)" stroke-width="1px"></line><line x1="572.9244791666667" y1="0" x2="572.9244791666667" y2="5" style="visibility: inherit;" fill="rgb(0, 0, 0)" stroke="rgb(204, 204, 204)" stroke-width="1px"></line><line x1="654.7708333333333" y1="0" x2="654.7708333333333" y2="5" style="visibility: inherit;" fill="rgb(0, 0, 0)" stroke="rgb(204, 204, 204)" stroke-width="1px"></line><line x1="736.6171875" y1="0" x2="736.6171875" y2="5" style="visibility: inherit;" fill="rgb(0, 0, 0)" stroke="rgb(204, 204, 204)" stroke-width="1px"></line><line x1="818.4635416666667" y1="0" x2="818.4635416666667" y2="5" style="visibility: inherit;" fill="rgb(0, 0, 0)" stroke="rgb(204, 204, 204)" stroke-width="1px"></line><line x1="900.3098958333333" y1="0" x2="900.3098958333333" y2="5" style="visibility: inherit;" fill="rgb(0, 0, 0)" stroke="rgb(204, 204, 204)" stroke-width="1px"></line><line x1="982.15625" y1="0" x2="982.15625" y2="5" style="visibility: inherit;" fill="rgb(0, 0, 0)" stroke="rgb(204, 204, 204)" stroke-width="1px"></line></g><g transform="translate(0, 8)"><text x="0" y="0" dx="0em" dy="0.95em" style="text-anchor: middle; visibility: hidden; font-family: Roboto, sans-serif; font-size: 12px; font-weight: 200;" fill="rgb(33, 33, 33)" stroke="none" stroke-width="1px">-2k</text><text x="81.84635416666666" y="0" dx="0em" dy="0.95em" style="text-anchor: middle; visibility: inherit; font-family: Roboto, sans-serif; font-size: 12px; font-weight: 200;" fill="rgb(33, 33, 33)" stroke="none" stroke-width="1px">0</text><text x="163.69270833333331" y="0" dx="0em" dy="0.95em" style="text-anchor: middle; visibility: inherit; font-family: Roboto, sans-serif; font-size: 12px; font-weight: 200;" fill="rgb(33, 33, 33)" stroke="none" stroke-width="1px">2k</text><text x="245.5390625" y="0" dx="0em" dy="0.95em" style="text-anchor: middle; visibility: inherit; font-family: Roboto, sans-serif; font-size: 12px; font-weight: 200;" fill="rgb(33, 33, 33)" stroke="none" stroke-width="1px">4k</text><text x="327.38541666666663" y="0" dx="0em" dy="0.95em" style="text-anchor: middle; visibility: inherit; font-family: Roboto, sans-serif; font-size: 12px; font-weight: 200;" fill="rgb(33, 33, 33)" stroke="none" stroke-width="1px">6k</text><text x="409.23177083333337" y="0" dx="0em" dy="0.95em" style="text-anchor: middle; visibility: inherit; font-family: Roboto, sans-serif; font-size: 12px; font-weight: 200;" fill="rgb(33, 33, 33)" stroke="none" stroke-width="1px">8k</text><text x="491.078125" y="0" dx="0em" dy="0.95em" style="text-anchor: middle; visibility: inherit; font-family: Roboto, sans-serif; font-size: 12px; font-weight: 200;" fill="rgb(33, 33, 33)" stroke="none" stroke-width="1px">10k</text><text x="572.9244791666667" y="0" dx="0em" dy="0.95em" style="text-anchor: middle; visibility: inherit; font-family: Roboto, sans-serif; font-size: 12px; font-weight: 200;" fill="rgb(33, 33, 33)" stroke="none" stroke-width="1px">12k</text><text x="654.7708333333333" y="0" dx="0em" dy="0.95em" style="text-anchor: middle; visibility: inherit; font-family: Roboto, sans-serif; font-size: 12px; font-weight: 200;" fill="rgb(33, 33, 33)" stroke="none" stroke-width="1px">14k</text><text x="736.6171875" y="0" dx="0em" dy="0.95em" style="text-anchor: middle; visibility: inherit; font-family: Roboto, sans-serif; font-size: 12px; font-weight: 200;" fill="rgb(33, 33, 33)" stroke="none" stroke-width="1px">16k</text><text x="818.4635416666667" y="0" dx="0em" dy="0.95em" style="text-anchor: middle; visibility: inherit; font-family: Roboto, sans-serif; font-size: 12px; font-weight: 200;" fill="rgb(33, 33, 33)" stroke="none" stroke-width="1px">18k</text><text x="900.3098958333333" y="0" dx="0em" dy="0.95em" style="text-anchor: middle; visibility: inherit; font-family: Roboto, sans-serif; font-size: 12px; font-weight: 200;" fill="rgb(33, 33, 33)" stroke="none" stroke-width="1px">20k</text><text x="982.15625" y="0" dx="0em" dy="0.95em" style="text-anchor: middle; visibility: hidden; font-family: Roboto, sans-serif; font-size: 12px; font-weight: 200;" fill="rgb(33, 33, 33)" stroke="none" stroke-width="1px">22k</text></g><line x1="0" y1="0" x2="982.15625" y2="0" fill="rgb(0, 0, 0)" stroke="rgb(204, 204, 204)" stroke-width="1px"></line></g></g></g></g></svg>